<?xml version="1.0" encoding="utf-8"?>
<!-- Generator: Adobe Illustrator 22.0.0, SVG Export Plug-In . SVG Version: 6.00 Build 0)  -->
<svg version="1.1" id="Layer_1" xmlns="http://www.w3.org/2000/svg" xmlns:xlink="http://www.w3.org/1999/xlink" x="0px" y="0px"
	 viewBox="0 0 517.9 237" style="enable-background:new 0 0 517.9 237;" xml:space="preserve">
<style type="text/css">
	.st0{fill:none;stroke:#212121;stroke-miterlimit:10;}
	.st1{font-family:'AmericanTypewriter';}
	.st2{font-size:12px;}
	.st3{fill:#212121;}
</style>
<g>
	<path class="st0" d="M66.5,149.1H26.6c-8.3,0-15-6.7-15-15v-21.8c0-8.3,6.7-15,15-15h39.9c8.3,0,15,6.7,15,15v21.8
		C81.5,142.4,74.8,149.1,66.5,149.1z"/>
	<path class="st0" d="M301,77.5h-66.1c-8.3,0-15-6.7-15-15V30.1c0-8.3,6.7-15,15-15H301c8.3,0,15,6.7,15,15v32.4
		C315.9,70.8,309.2,77.5,301,77.5z"/>
	<text transform="matrix(1 0 0 1 24.6209 120.8381)"><tspan x="0" y="0" class="st1 st2">Freeciv</tspan><tspan x="2" y="14.4" class="st1 st2">Server</tspan></text>
	<text transform="matrix(1 0 0 1 208.8537 124.3384)" class="st1 st2">Freeciv-python</text>
	<g>
		<path class="st0" d="M340.7,221.8h-181c-8.3,0-15-6.7-15-15v-59.8c0-8.3,6.7-15,15-15h181c8.3,0,15,6.7,15,15v59.8
			C355.6,215.2,348.9,221.8,340.7,221.8z"/>
		<text transform="matrix(1 0 0 1 225.2331 172.8376)"><tspan x="0" y="0" class="st1 st2">Inference</tspan><tspan x="7.5" y="14.4" class="st1 st2">Engine</tspan></text>
		<text transform="matrix(1 0 0 1 163.4583 172.838)"><tspan x="0" y="0" class="st1 st2">Packet</tspan><tspan x="-6.1" y="14.4" class="st1 st2">Manager</tspan></text>
		<text transform="matrix(1 0 0 1 303.8213 180.8379)" class="st1 st2">World</text>
	</g>
	<text transform="matrix(1 0 0 1 427.692 180.8382)" class="st1 st2">AI agent</text>
	<text transform="matrix(1 0 0 1 428.8709 50.2986)" class="st1 st2">Human agent</text>
	<text transform="matrix(1 0 0 1 246.3926 34.883)"><tspan x="0" y="0" class="st1 st2">Freeciv</tspan><tspan x="4.6" y="14.4" class="st1 st2">Client</tspan><tspan x="-18.6" y="28.8" class="st1 st2">(GUI enabled)</tspan></text>
	<circle class="st3" cx="81.5" cy="124.3" r="4"/>
	<circle class="st3" cx="219.9" cy="46.3" r="4"/>
	<circle class="st3" cx="414.4" cy="46.3" r="4"/>
	<circle class="st3" cx="144.7" cy="177" r="4"/>
	<path class="st0" d="M97.1,140c0-8.7-7-15.7-15.7-15.7"/>
	<path class="st0" d="M81.5,124.3c8.7,0,15.7-7,15.7-15.7"/>
	<path class="st0" d="M112.8,46.3c-8.7,0-15.7,7-15.7,15.7"/>
	<path class="st0" d="M97.1,161.3c0,8.7,7,15.7,15.7,15.7"/>
	<line class="st0" x1="97.1" y1="108.6" x2="97.1" y2="62"/>
	<line class="st0" x1="112.8" y1="46.3" x2="219.9" y2="46.3"/>
	<line class="st0" x1="315.9" y1="46.3" x2="414.4" y2="46.3"/>
	<circle class="st3" cx="414.4" cy="177" r="4"/>
	<line class="st0" x1="355.6" y1="177" x2="414.4" y2="177"/>
	<line class="st0" x1="97.1" y1="140" x2="97.1" y2="161.3"/>
	<line class="st0" x1="112.8" y1="177" x2="144.7" y2="177"/>
</g>
</svg>
