<?xml version="1.0" encoding="utf-8"?>
<!-- Generator: Adobe Illustrator 22.0.0, SVG Export Plug-In . SVG Version: 6.00 Build 0)  -->
<svg version="1.1" id="Layer_1" xmlns="http://www.w3.org/2000/svg" xmlns:xlink="http://www.w3.org/1999/xlink" x="0px" y="0px"
	 viewBox="0 0 912.5 912.5" style="enable-background:new 0 0 912.5 912.5;" xml:space="preserve">
<style type="text/css">
	.st0{fill:#E8E5B2;stroke:#000000;stroke-miterlimit:10;}
	.st1{fill:#68411D;}
	.st2{enable-background:new    ;}
	.st3{fill:none;stroke:#68411D;stroke-width:2;stroke-miterlimit:10;stroke-dasharray:12.062,12.062;}
</style>
<rect x="-41" y="-41" class="st0" width="994.6" height="994.6"/>
<g>
	<g>
		<path class="st1" d="M923.1,489.1c-0.1,0-0.2,0-0.3-0.1c-0.6-0.4-1.1-0.9-1.7-1.3c-1.2-0.9-2.4-1.9-3.7-2.7l-1.7-1
			c-4.4-2.6-9-5.4-13-9c-7-6.5-7.4-14.7-6.9-21.9c0.2-2.4,0.5-4.9,0.9-7.2c0.3-2,0.6-4.1,0.8-6.2c0.3-3.9,0.7-8.5,0.6-13.1
			c-0.2-9.3-3.7-17.7-10.4-25.1c-4.7-5.3-10.7-9.2-16.4-12.9c-1.7-1.1-3.5-2.3-5.2-3.5l-1.9-1.3c-9.1-6.3-18.5-12.8-26.6-20.7
			c-5.7-5.7-11.7-11.3-17.6-16.7c-5.3-4.9-10.8-10-16-15.2c-4.7-4.5-8.9-9.7-12.9-14.7l-0.9-1.1c-7.6-9.3-15-17.3-22.5-24.6
			c-5.9-5.7-11.4-12-16-17.5c-1.6-1.9-2.9-4.4-4.1-7.9c-1-3-1.5-5.9-1.5-8.4v-1.3c0.2-6.5,0.4-13.1,1.4-19.6c1.7-10.7,3-21.1-1-31.4
			c-1.7-4.3-4-9.8-7.4-14.7c-5.5-8-11.4-15.9-17-23.6c-2.6-3.5-5.2-7-7.7-10.5c-9.9-13.6-23.6-24-44.4-33.9c-4.3-2-8.6-4.2-12.8-6.3
			c-4.9-2.5-10-5-15-7.3c-7.1-3.3-16.5-7.1-26.9-8c-6.1-0.5-12.2,0.6-17.8,1.9c-6.2,1.4-12.5,2.7-18.5,4l-2.9,0.6
			c-13.1,2.7-24.7-0.8-36.5-11.2C527.5,85.2,515,75,503.9,66c-8-6.5-16.7-13.3-27.4-21.4c-4-3-8.1-6-12.1-8.9
			c-3.5-2.5-7.2-5.1-10.7-7.8c-8.9-6.6-16.6-14.9-23-24.7c-4.9-6.9-9.7-10.7-16-12.2c-4.6-1.1-9.1-0.8-14.6,1.2
			c-6.2,2.2-9.7-2.5-14.5,1.8c-0.6,0.5-1.8,1.9-2.5,2.2c-0.3,0.1,0.5,2,0.2,2.2c-0.3,0.1-0.9,0.2-1-0.1s-2.3-1.4-2.1-1.6
			c0.3-0.2,1.4-1.9,1.7-2c0.7-0.3,1-1.8,1.4-2.2c4.8-4.3,10.1,0.9,16.4-1.4c5.7-2,10.4-2.4,15.2-1.2c6.5,1.6,11.7,5.6,16.3,12.6
			c6.4,9.6,14,17.9,22.8,24.4c3.5,2.6,7.1,5.2,10.7,7.7c4,2.9,8.2,5.9,12.2,8.9c10.7,8.1,19.4,14.9,27.5,21.5
			c11.1,9,23.6,19.2,35.7,29.8c11.6,10.1,22.9,13.6,35.6,11l2.9-0.6c6.1-1.3,12.4-2.6,18.5-4c5.7-1.3,11.9-2.5,18.2-1.9
			c10.6,0.9,20.2,4.8,27.3,8.1c5.1,2.3,10.1,4.9,15,7.4c4.2,2.1,8.5,4.3,12.7,6.3c21,9.9,34.8,20.5,44.8,34.2
			c2.6,3.5,5.1,7,7.7,10.5c5.7,7.7,11.5,15.6,17,23.6c3.4,5,5.8,10.6,7.5,14.9c4.1,10.5,2.9,21.2,1.1,32c-1,6.4-1.2,13-1.4,19.4v1.3
			c-0.1,2.4,0.4,5.2,1.4,8.1c1.1,3.3,2.4,5.7,3.9,7.5c4.6,5.4,10.1,11.7,16,17.4c7.6,7.3,15,15.4,22.6,24.7l0.9,1.1
			c4,4.9,8.2,10.1,12.8,14.6c5.3,5.1,10.7,10.2,16,15.2c5.8,5.4,11.8,11,17.6,16.7c8,7.9,17.4,14.4,26.4,20.6l1.9,1.3
			c1.7,1.2,3.5,2.4,5.2,3.5c5.8,3.8,11.8,7.8,16.6,13.1c6.9,7.6,10.4,16.3,10.7,25.8c0.1,4.7-0.2,9.3-0.6,13.2
			c-0.2,2.1-0.5,4.2-0.8,6.3c-0.3,2.3-0.7,4.8-0.8,7.1c-0.5,6.9-0.1,14.9,6.6,21.1c3.9,3.6,8.4,6.3,12.8,8.9l1.7,1
			c1.3,0.8,2.6,1.8,3.8,2.7c0.6,0.4,1.1,0.9,1.7,1.3c0.2,0.2,0.3,0.5,0.1,0.8C923.4,489,923.2,489.1,923.1,489.1z"/>
	</g>
	<g>
		<path class="st1" d="M923.1,419.9c-0.3,0-0.5-0.2-0.5-0.5c-0.8-7.7-3.9-14.9-10.2-23.4c-6.7-9.1-15.3-16.2-23.6-22.5
			c-10.9-8.3-20.4-18-29-27.1c-6.6-7-13.7-13.9-20.6-20.5c-2.6-2.5-5.3-5-7.9-7.6c-10.8-10.5-19.4-19.7-26.9-28.9
			c-6.5-8-11.4-15.5-14.9-23c-1.6-3.4-2.4-7.1-2.5-11.3c-0.2-8.3,0.7-17.1,2.8-26.7c1.2-5.6,2.2-12.3,0.4-19.2s-5.1-13-10-18.3
			c-5.3-5.8-11.3-11.8-18.2-18.3c-13-12.2-25.2-26.5-39.5-46.4c-7.4-10.3-15.8-17.3-25.8-21.5c-3.6-1.5-7.4-2.8-11-4.1
			c-3.1-1.1-6.4-2.2-9.5-3.5c-11.5-4.6-20.8-8.5-29.2-12.3s-17.5-7.4-27.3-8.1c-5.5-0.4-11.2-0.2-16.5,0c-3,0.1-6,0.5-8.9,0.8
			c-1.7,0.2-3.4,0.4-5.1,0.5c-3,0.3-6.1,0.4-8.6,0.6c-10.5,0.5-20.1-2.8-28.6-9.9c-9.2-7.6-18.5-15.9-28.6-25.2
			c-8.6-7.9-17.2-16.2-25.6-24.2c-2.8-2.7-5.7-5.4-8.5-8.1c-4.6-4.4-8.1-9.2-10.5-14.7c-1.5-3.4-2.2-6.9-2.9-10.4
			c-0.3-1.5-0.6-3.1-1-4.6c-0.2-0.9-0.4-1.9-0.6-2.9c-0.2-0.9-0.4-1.9-0.6-2.8c0-0.1-0.3-0.3-0.5-0.5c-0.2-0.1-0.3-0.3-0.5-0.4
			c-0.2-0.2-0.2-0.6,0-0.8s0.6-0.2,0.8,0c0.1,0.1,0.2,0.2,0.4,0.3c0.4,0.3,0.8,0.6,0.9,1.1c0.2,1,0.4,2,0.6,2.9s0.4,1.9,0.6,2.8
			c0.4,1.5,0.7,3.1,1,4.6c0.7,3.4,1.4,6.9,2.9,10.2c2.4,5.4,5.7,10.1,10.3,14.4c2.8,2.7,5.7,5.4,8.5,8.1c8.3,8,16.9,16.2,25.6,24.1
			c10.1,9.3,19.4,17.5,28.6,25.1c8.3,6.9,17.7,10.2,27.9,9.6c2.5-0.1,5.5-0.3,8.6-0.6c1.7-0.2,3.4-0.4,5.1-0.5c2.9-0.3,6-0.7,9-0.8
			c5.3-0.2,11-0.4,16.6,0c9.9,0.7,19.2,4.4,27.7,8.2c8.4,3.8,17.6,7.7,29.1,12.3c3.1,1.2,6.3,2.4,9.4,3.4c3.7,1.3,7.5,2.6,11.1,4.1
			c10.1,4.3,18.7,11.4,26.2,21.9c14.3,19.8,26.4,34.1,39.4,46.2c7,6.5,12.9,12.5,18.3,18.3c4.9,5.4,8.4,11.7,10.2,18.7
			s0.8,13.9-0.4,19.7c-2.1,9.6-3,18.2-2.8,26.5c0.1,4.1,0.9,7.7,2.4,10.9c3.4,7.5,8.2,14.9,14.7,22.8c7.5,9.2,16.1,18.3,26.8,28.8
			c2.6,2.5,5.2,5.1,7.9,7.6c6.9,6.6,14,13.5,20.7,20.5c8.6,9.1,18,18.7,28.9,27c8.4,6.4,17,13.6,23.8,22.7c6.4,8.7,9.6,16.1,10.4,24
			C923.7,419.6,923.4,419.9,923.1,419.9L923.1,419.9z"/>
	</g>
	<g>
		<path class="st1" d="M923.1,391.3c-0.2,0-0.4-0.1-0.5-0.3c-2.8-4.9-6.4-9.2-10.7-13c-2.1-1.8-4.1-3.6-6.2-5.4
			c-4.7-4.1-9.6-8.4-14.4-12.6c-7.8-7.1-14.9-15.2-21.7-23c-2.2-2.6-4.4-5.1-6.7-7.6c-3.5-3.9-7.1-7.9-10.7-11.7
			c-2.8-3.1-5.7-6.1-8.5-9.2c-1.3-1.5-2.7-3-4.1-4.4c-3.9-4.2-7.9-8.5-11.3-13.1c-4.8-6.5-10-14.4-12.8-23.5
			c-3-9.6-2.5-19.6,1.2-29.8c2.6-7.1,5.8-14.5,9.7-22.6c2.5-5.2,2-10.1-1.8-16.4c-2.8-4.7-6.8-8.7-12.1-12.4
			c-10.2-7-21.4-14.6-34.3-23.2c-13.8-9.2-24.7-19.6-33.6-31.9c-2.1-3-4.3-6-6.4-9c-4.1-5.7-8.3-11.6-12.5-17.3
			c-7.1-9.7-17.3-16.5-30.3-20.3c-11.8-3.5-24.4-7.4-36.4-12.9c-6.4-2.9-13.1-5.7-20.5-8.6c-6-2.3-12.6-3.1-20.6-2.7h-0.6
			c-11.6,0.6-23.6,1.3-35.4,0.5c-8.3-0.6-15.9-3.8-24-10.3c-12.9-10.4-23.7-22.3-32.1-35.3c-3-4.7-6.7-11-8.4-18.1
			c-0.8-3.4-1-7.1-1.2-10.6v-1c-0.1-2.6-0.1-5.2-0.1-7.8c0-1.1,0-2.3,0-3.4c0-0.3,0.2-0.5,0.5-0.5s0.5,0.2,0.5,0.5
			c0,1.1,0,2.3,0,3.4c0,2.5-0.1,5.2,0.1,7.7v1c0.2,3.5,0.3,7,1.1,10.4c1.6,6.9,5.2,13.2,8.2,17.8c8.3,12.9,19,24.7,31.8,35
			c7.9,6.3,15.3,9.5,23.4,10.1c11.8,0.8,23.8,0.1,35.3-0.5h0.6c8.2-0.4,14.9,0.4,21.1,2.8c7.5,2.8,14.2,5.6,20.6,8.6
			c11.9,5.5,24.4,9.4,36.2,12.9c13.3,3.9,23.7,10.8,30.9,20.7c4.2,5.7,8.4,11.6,12.5,17.3c2.1,3,4.3,6,6.4,8.9
			c8.8,12.2,19.7,22.5,33.3,31.6c12.9,8.6,24.1,16.2,34.3,23.2c5.5,3.8,9.6,7.9,12.4,12.7c2.6,4.4,5.3,10.4,1.9,17.4
			c-3.9,8-7.1,15.4-9.7,22.5c-3.7,10-4.1,19.7-1.2,29.1c2.8,8.9,7.9,16.7,12.6,23.2c3.3,4.6,7.3,8.9,11.2,13
			c1.4,1.5,2.7,2.9,4.1,4.4c2.8,3.1,5.6,6.1,8.4,9.2c3.5,3.8,7.2,7.8,10.7,11.7c2.3,2.5,4.5,5.1,6.7,7.6
			c6.8,7.8,13.8,15.8,21.6,22.9c4.7,4.3,9.6,8.5,14.3,12.6c2.1,1.8,4.1,3.6,6.2,5.4c4.4,3.9,8.1,8.3,11,13.3
			c0.2,0.3,0.1,0.6-0.2,0.8C923.3,391.3,923.2,391.3,923.1,391.3z"/>
	</g>
	<g>
		<path class="st1" d="M850.6,138.5c-1.4,0-2.9-0.1-4.5-0.2c-8.6-0.9-16.4-4.2-23.7-7.7l-3-1.4c-10.2-4.9-20.8-10-30.5-16.4
			c-9.8-6.5-17.4-15.4-22.4-26.6c-2.6-5.7-4.9-11.7-7.1-17.5c-1.2-3.2-2.5-6.5-3.8-9.7c-4.4-10.8-10.1-17.9-18.1-22.2
			c-3.6-2-7.5-3.3-11.4-4.7l-1.4-0.5C714.4,28,706.3,23,700,16.2c-2.5-2.6-4.6-5.7-6.6-8.7c-1-1.5-2-3-3-4.4l-3.1-4.3
			c-3.8-5.3-7.8-10.7-11.8-16c-2.2-2.9-5.3-6.4-10-7.8c-0.3-0.1-0.5-0.4-0.4-0.7c0.1-0.3,0.4-0.4,0.7-0.4c5,1.6,8.2,5.2,10.5,8.2
			c4,5.3,8,10.7,11.8,16l3.1,4.3c1.1,1.4,2.1,3,3,4.4c2,2.9,4,6,6.4,8.6c6.2,6.6,14.2,11.6,24.3,15.1l1.4,0.5
			c3.9,1.4,7.9,2.8,11.5,4.8c8.2,4.5,14.1,11.7,18.6,22.8c1.3,3.2,2.6,6.5,3.8,9.7c2.2,5.8,4.5,11.7,7.1,17.4
			c5,11,12.4,19.8,22,26.1c9.6,6.3,20.2,11.4,30.4,16.3l3,1.4c7.1,3.4,14.9,6.7,23.3,7.6c9,0.9,15.9-0.9,21.2-5.7
			c6.5-5.9,13-12.6,19.4-19.9l1.3-1.4c7.3-8.4,14.8-17.1,23.4-24.6c2.6-2.3,5.1-4.9,7.5-7.3c1.1-1.2,2.2-2.3,3.4-3.4
			c0.2-0.2,0.6-0.2,0.8,0s0.2,0.6,0,0.8c-1.1,1.1-2.2,2.3-3.4,3.4c-2.4,2.5-4.9,5.1-7.6,7.4c-8.5,7.4-16,16.1-23.3,24.5l-1.3,1.4
			c-6.4,7.4-13,14.1-19.5,20C863.6,136.5,857.8,138.5,850.6,138.5z"/>
	</g>
	<g>
		<path class="st1" d="M734.4,69.7c-0.1,0-0.3-0.1-0.4-0.2c-0.3-0.3-0.7-0.7-1-1c-0.7-0.8-1.3-1.5-2.1-2l-1.3-0.9
			c-3.1-2.1-6.4-4.2-9.8-5.9c-3.5-1.8-7.1-3.5-10.7-5.1c-4-1.9-8.2-3.8-12.2-5.9c-7-3.6-13.3-9.4-19.7-18.1
			c-1.4-1.9-2.7-3.8-4.1-5.7c-2.6-3.6-5.2-7.3-8-10.8c-1.4-1.8-3.5-3.5-6.4-5.3c-3.9-2.4-8.1-2.2-11.9,0.5
			c-3.6,2.6-7.3,5.5-11.7,9.4c-7.6,6.6-14.5,10.8-21.7,13.2C602,35.7,591,35.6,581,31.6c-5.2-2.1-10.1-5.6-15-10.7
			c-6.6-6.9-11.2-14.4-13.5-22.5c-1.2-4.1-1.7-8.5-2.3-12.7c-0.1-1-0.3-2-0.4-3.1c-0.2-1.8-0.3-3.7-0.3-5.6c0-0.8,0-1.7,0-2.5
			c0-0.3,0.2-0.6,0.5-0.6s0.6,0.2,0.6,0.5c0,0.8,0,1.7,0,2.5c0,1.8,0,3.6,0.3,5.4c0.1,1,0.3,2,0.4,3.1c0.5,4.2,1.1,8.5,2.2,12.6
			c2.3,7.9,6.7,15.3,13.2,22.1c4.8,5,9.6,8.4,14.7,10.4c9.9,4,20.3,4.1,31.9,0.3c7-2.3,13.8-6.4,21.3-13c4.4-3.9,8.2-6.9,11.8-9.4
			c4.2-3,8.8-3.2,13.1-0.6c3,1.8,5.2,3.7,6.7,5.6c2.8,3.5,5.5,7.3,8,10.9c1.3,1.9,2.7,3.8,4.1,5.7c6.4,8.7,12.3,14.2,19.3,17.8
			c4,2.1,8.1,4,12.1,5.9c3.5,1.6,7.2,3.3,10.7,5.1c3.4,1.7,6.7,3.9,9.9,6l1.3,0.9c0.9,0.6,1.6,1.4,2.3,2.2c0.3,0.3,0.6,0.7,0.9,1
			c0.2,0.2,0.2,0.6,0,0.8C734.7,69.7,734.5,69.7,734.4,69.7z"/>
	</g>
	<g>
		<path class="st1" d="M850.2,160.3c-2,0-4-0.2-6.1-0.5c-8.9-1.3-16.8-4.7-25.3-8.7c-14.3-6.7-25.7-12.5-35.7-18.4
			c-3.3-1.9-5.9-3.8-8.1-5.8c-10.4-9.5-17.6-18.5-22.8-28.4l-1.3-2.6c-4.4-8.4-8.9-17.1-15.1-24.6c-0.3-0.4-0.5-0.8-0.8-1.2
			c-0.5-1-0.9-1.5-1.8-1.7c-0.3,0-0.5-0.3-0.5-0.6c0-0.3,0.3-0.5,0.6-0.5c1.5,0.2,2.1,1.3,2.6,2.3c0.2,0.4,0.4,0.8,0.6,1
			c6.3,7.6,10.8,16.3,15.2,24.8L753,98c5.1,9.8,12.3,18.7,22.6,28.1c2.1,1.9,4.7,3.8,7.9,5.7c10,5.9,21.3,11.7,35.6,18.4
			c8.5,3.9,16.2,7.3,25,8.6c11.5,1.6,21-1.3,29-9c8.2-7.9,14.6-17.3,20.8-26.4c0.8-1.2,1.7-2.4,2.5-3.6c7-10.1,15.1-19.4,24.1-27.5
			c0.5-0.5,0.9-1,1.3-1.6c0.2-0.3,0.4-0.6,0.6-0.9c0.2-0.2,0.5-0.3,0.8-0.1c0.2,0.2,0.3,0.5,0.1,0.8s-0.4,0.5-0.6,0.8
			c-0.4,0.6-0.9,1.3-1.5,1.8c-9,8.1-17,17.3-23.9,27.3c-0.8,1.2-1.7,2.4-2.5,3.6c-6.3,9.1-12.7,18.6-21,26.5
			C867.2,157.1,859.4,160.3,850.2,160.3z"/>
	</g>
	<g>
		<path class="st1" d="M923.1,375.9c-0.1,0-0.3-0.1-0.4-0.2c-1.1-1.1-2.1-2.3-3.2-3.5c-2.3-2.5-4.6-5-7.1-7.3
			c-11.2-10.4-21.9-20.7-30.9-32.4c-3-3.9-6.1-7.9-9.1-11.8c-6.9-8.9-14-18.2-20.9-27.4c-4.8-6.5-8.2-13.4-9.9-20.5
			c-1.8-7.4-1.4-13.5,1.3-18.6c3.9-7.5,9.4-11.7,16.5-12.7c9-1.4,18.3-0.1,29.1,3.9c8.2,3,16.4,6.4,24.3,9.7c3,1.2,5.9,2.5,8.9,3.7
			c0.4,0.2,0.8,0.6,1,0.9c0.1,0.1,0.2,0.2,0.3,0.4c0.2,0.2,0.2,0.6,0,0.8c-0.2,0.2-0.6,0.2-0.8,0c-0.1-0.1-0.3-0.3-0.4-0.4
			c-0.2-0.2-0.4-0.5-0.6-0.6c-3-1.2-5.9-2.4-8.9-3.7c-7.9-3.3-16.1-6.7-24.3-9.7c-10.7-4-19.8-5.2-28.6-3.9c-6.8,1-12,5-15.7,12.2
			c-2.5,4.8-2.9,10.7-1.2,17.8c1.7,6.9,4.9,13.6,9.7,20.1c6.8,9.2,14,18.5,20.8,27.4c3,3.9,6.1,7.9,9.1,11.8
			c8.9,11.7,19.7,21.9,30.8,32.3c2.5,2.3,4.9,4.9,7.2,7.4c1.1,1.2,2.1,2.3,3.2,3.4c0.2,0.2,0.2,0.6,0,0.8
			C923.3,375.8,923.2,375.9,923.1,375.9z"/>
	</g>
	<g>
		<path class="st1" d="M855.9,73.1c-7.3,0-14.7-1.4-22.2-4.3c-13.3-5.2-23-14.1-28.8-26.6c-3.1-6.6-5.2-14.3-6.4-22.7
			c-0.6-4.4-1.1-8.9-1.6-13.3c-0.4-3.9-0.9-7.9-1.4-11.9c-0.9-6.9-1.8-13-3.9-19c-0.1-0.3,0-0.6,0.3-0.7s0.6,0,0.7,0.3
			c2.2,6.1,3.1,12.3,4,19.3c0.5,4,1,8,1.4,11.9c0.5,4.3,1,8.8,1.6,13.2c1.1,8.3,3.2,15.9,6.3,22.4c5.7,12.2,15.2,20.9,28.2,26
			c10.8,4.2,21.5,5.3,31.9,3.3c5.9-1.1,12.3-3.3,19.6-6.7c12-5.6,23-14.1,33.9-26.1c0.9-1,1.5-2.1,2.2-3.3c0.3-0.6,0.6-1.1,1-1.7
			c0.2-0.3,0.5-0.3,0.8-0.2c0.3,0.2,0.3,0.5,0.2,0.8c-0.3,0.5-0.6,1.1-0.9,1.7c-0.7,1.2-1.4,2.5-2.3,3.5
			c-10.9,12.1-22.1,20.7-34.2,26.3c-7.3,3.4-13.8,5.7-19.8,6.8C862.8,72.7,859.4,73.1,855.9,73.1z"/>
	</g>
	<g>
		<path class="st1" d="M867.1,46.9c-5.6,0-11.6-0.5-17.7-2.1c-13.4-3.7-23.1-11.6-28.9-23.4c-3.5-7.1-4.6-14.7-5.5-21.9
			c-0.7-5.6-1.5-11.4-2.3-16.9c-0.4-2.5-0.7-4.9-1.1-7.4c0-0.3,0.2-0.6,0.5-0.6s0.6,0.2,0.6,0.5c0.3,2.5,0.7,4.9,1.1,7.4
			c0.8,5.5,1.6,11.3,2.3,16.9c0.9,7.1,2,14.6,5.4,21.5c5.7,11.5,15.2,19.2,28.2,22.8c8.2,2.3,16.5,2.2,23.6,1.9
			c9.9-0.5,18.9-3.9,27.6-10.5c5.3-4.1,10-9.2,14.5-14.2c0.7-0.7,1.4-1.5,2-2.2c1.5-1.6,2.6-3.7,3.6-5.6c0.5-0.9,1-1.9,1.5-2.8
			c0.2-0.3,0.5-0.3,0.8-0.2c0.3,0.2,0.3,0.5,0.2,0.8c-0.5,0.9-1,1.8-1.5,2.7c-1.1,2-2.2,4.2-3.8,5.9c-0.7,0.7-1.4,1.5-2,2.2
			c-4.6,5-9.3,10.2-14.7,14.3c-8.8,6.8-18.1,10.3-28.2,10.8C871.4,46.8,869.3,46.9,867.1,46.9z"/>
	</g>
	<g>
		<path class="st1" d="M922.8,242.1c-0.1,0-0.2,0-0.4-0.1c-0.2-0.2-0.4-0.3-0.6-0.5c-0.3-0.3-0.7-0.7-1-0.8
			c-9.1-3.8-17.9-8.8-26.4-14.7c-5-3.5-10.6-7.9-14.1-14.2c-2.1-3.6-4.9-8.6-3.4-13.8c1.3-4.7,3.3-9.6,6.3-15.5
			c2.1-4.2,4.3-8.3,6.5-12.3s4.5-8.2,6.5-12.3c7.1-14.2,15.5-27.8,25-40.4c0.4-0.5,0.7-1.1,1-1.6c0.1-0.3,0.3-0.6,0.4-0.8
			c0.1-0.3,0.5-0.4,0.7-0.2c0.3,0.1,0.4,0.5,0.2,0.7s-0.3,0.5-0.4,0.8c-0.3,0.6-0.6,1.2-1.1,1.8c-9.5,12.5-17.8,26-24.8,40.2
			c-2.1,4.2-4.3,8.3-6.5,12.4c-2.2,4-4.4,8.1-6.5,12.3c-2.9,5.9-4.9,10.7-6.2,15.3c-1.2,4.4,0.8,8.5,3.3,12.9
			c3.4,6.1,8.9,10.4,13.8,13.8c8.4,5.9,17.2,10.8,26.2,14.6c0.5,0.2,1,0.6,1.4,1c0.2,0.2,0.3,0.3,0.5,0.5s0.3,0.5,0.1,0.8
			C923.1,242,922.9,242.1,922.8,242.1z"/>
	</g>
	<g>
		<path class="st1" d="M923.1,356.4c-0.2,0-0.3-0.1-0.4-0.2c-0.4-0.5-0.7-1-1.1-1.5c-0.7-1-1.5-2.1-2.3-3
			c-6.7-6.9-12.1-15-17.4-22.8c-0.9-1.3-1.8-2.6-2.6-3.9c-4.4-6.5-9.2-14.3-11.5-23.3c-0.7-2.9-1-5.9-1.3-8.6
			c-0.1-1.1-0.2-2.3-0.4-3.3c0-0.1,0-0.3,0.1-0.4c4.1-6.3,9.3-8.4,17-6.8c4.6,1,9.3,1.6,13.8,2.3c2,0.3,4.1,0.6,6.1,0.9
			c0.3,0,0.5,0.3,0.5,0.6c0,0.3-0.3,0.5-0.6,0.5c-2-0.3-4.1-0.6-6.1-0.9c-4.6-0.7-9.3-1.4-13.9-2.3c-7.1-1.5-11.9,0.4-15.7,6.1
			c0.1,1,0.2,2,0.3,3.1c0.3,2.6,0.5,5.6,1.3,8.4c2.2,8.8,7,16.6,11.3,23c0.9,1.3,1.8,2.6,2.6,3.9c5.2,7.8,10.6,15.8,17.2,22.7
			c0.9,1,1.7,2.1,2.5,3.1c0.3,0.5,0.7,1,1,1.5c0.2,0.2,0.1,0.6-0.1,0.8C923.3,356.4,923.2,356.4,923.1,356.4z"/>
	</g>
	<g>
		<path class="st1" d="M595.7,13.5c-5.5,0-10.7-2-15.5-6c-6.8-5.7-11.4-13.5-13.9-24c-0.5-2-0.8-4.1-1.1-6.1
			c-0.1-0.9-0.3-1.8-0.4-2.8c0-0.3,0.2-0.6,0.5-0.6s0.6,0.2,0.6,0.5c0.1,0.9,0.3,1.9,0.4,2.8c0.3,2,0.6,4.1,1,6
			c2.5,10.2,6.9,17.9,13.5,23.4c6.5,5.4,13.7,7,21.5,4.7c5.4-1.6,10-4.7,13.7-9.3c2.7-3.3,5.3-6.7,7.8-10.1c2.2-3,4.5-6,6.9-9
			l0.6-0.7c2.6-3.3,5.3-6.7,9.6-8.3c0.3-0.1,0.6,0,0.7,0.3c0.1,0.3,0,0.6-0.3,0.7c-4,1.5-6.6,4.8-9.2,8l-0.6,0.7
			c-2.3,2.9-4.7,6-6.9,9c-2.5,3.3-5.1,6.8-7.8,10.1c-3.8,4.8-8.6,8-14.2,9.6C600.4,13.2,598,13.5,595.7,13.5z"/>
	</g>
	<g>
		<path class="st1" d="M922.8,219.8c-0.1,0-0.3-0.1-0.4-0.2c-0.1-0.1-0.3-0.3-0.4-0.4c-0.2-0.3-0.4-0.5-0.7-0.6
			c-8-4.4-13.5-10.8-16.5-19.2c-1.8-5.2-2.1-10.9-0.7-18c1.9-10.1,5.6-20.5,11.3-31.6c1.5-3,3.2-5.9,4.9-8.7
			c0.8-1.3,1.5-2.6,2.3-3.9c0.2-0.3,0.5-0.4,0.8-0.2c0.3,0.1,0.4,0.5,0.2,0.8c-0.7,1.3-1.5,2.6-2.3,3.9c-1.6,2.8-3.3,5.7-4.8,8.6
			c-5.7,11-9.3,21.2-11.2,31.3c-1.3,6.9-1.1,12.4,0.7,17.4c2.9,8.1,8.2,14.4,16,18.6c0.4,0.2,0.7,0.6,1,0.9c0.1,0.1,0.2,0.2,0.3,0.4
			c0.2,0.2,0.2,0.6,0,0.8C923.1,219.7,922.9,219.8,922.8,219.8z"/>
	</g>
</g>
<g>
	<g>
		<g>
			<path class="st1" d="M366.4,927.5c-0.1,0-0.2,0-0.3-0.1c-1.1-0.6-2.3-1.3-3.4-2c-2.4-1.4-4.9-2.9-7.5-3.9
				c-8.4-3.4-18-7.2-27.7-10.2c-12.7-3.9-25.9-7.4-38.3-10.6c-14-3.6-26.8-8.9-38-15.7c-7.3-4.4-13.1-9.8-17.5-16.2
				c-5.5-8.1-5.5-17.2,0.2-26.2c3.7-5.9,8.2-11.5,12.5-16.8c1.2-1.5,2.4-2.9,3.5-4.4c5.9-7.4,13-16.2,20.4-25c6-7,11.6-13,19.9-15.6
				c3-1,6.5-2,10-2.1c7.9-0.2,16.4-0.3,27.4-0.1c2.6,0,5.2,0.3,7.7,0.5c3.1,0.3,6.3,0.5,9.5,0.5c9.9-0.2,20.1-1.3,30.1-3.4
				c14.8-3,32.3-5.5,49.8-0.4c12.9,3.7,24.3,10.3,32.8,15.6c6.2,3.8,12.3,7.9,18.3,11.8c6.8,4.4,13.8,9,20.8,13.3
				c14.7,9,27.6,13.4,40.5,13.9c12.2,0.4,20-3.8,23.7-12.8c1.9-4.8,2.5-10.3,1.8-17.3c-0.9-9.7-1.9-19.8-2-29.9
				c-0.1-5.8,0.3-12.4,3.5-18.2c4.7-8.3,12.3-12.9,22.5-13.7c4.6-0.3,9.3-0.7,13.9-1c8.5-0.6,17.2-1.2,25.8-1.9l5.8-0.5
				c13.1-1.1,26.6-2.2,39.9-3.9c6.4-0.8,12.6-3.4,17.4-5.5c4.4-2,7.9-5.9,10.3-11.5c0.6-1.3,1.1-2.6,1.7-3.9
				c2.4-5.5,4.9-11.1,7-16.8c5.4-14.4,13.8-27.8,25.7-41l0.2-0.2c8.9-9.9,18.1-20.1,24.8-31.9c7.2-12.8,10.1-26.5,8.5-40.8
				c-1.3-12.2-6.5-24-15.2-35.2c-8-10.3-18.7-17.9-29-25.3l-0.7-0.5c-10.5-7.5-22.1-14.7-36.5-22.5l-3.9-2.1
				c-8.3-4.5-16.8-9.1-25-14.1c-19.5-12-32.7-29.7-39.3-52.6c-6.1-21.3-12-42.4-17.6-62.2c-1.7-6.1-3.4-12.3-5-18.3
				c-2.7-9.9-5.5-20.2-8.4-30.2c-3.3-11.3-9.2-19.3-18-24.3c-5.6-3.2-12.1-4.9-20.5-5.2c-14.7-0.5-29.1,1.3-42.7,5.5
				c-12.2,3.8-20,11.5-23.8,23.6c-1.5,4.7-2.8,9.6-4.2,14.2c-1.4,4.9-2.8,10-4.4,14.9c-1.5,4.7-3.3,8.9-5.3,12.4
				c-2.6,4.4-6.1,7.2-10,8c-4.2,0.9-8.9-0.4-13.5-3.7c-4.7-3.4-9.2-7.1-13.6-10.6c-2.3-1.9-4.8-3.9-7.2-5.8
				c-10-7.9-19-13.1-28.3-16.4c-14.1-5-28.5-0.4-36.6,11.7c-5.5,8.2-10.3,17.5-14.7,28.4c-10.1,25-22.5,42.3-38.9,54.7
				c-8.6,6.5-18.4,11.1-27.9,15.5l-1.4,0.6c-22.1,10.4-37.9,22.4-49.8,37.8c-8.3,10.7-15.9,18.6-23.8,24.9
				c-8.1,6.4-17.6,9.6-28.8,9.9c-10,0.2-18,0.2-25.3,0c-3-0.1-6.1-0.4-9.1-0.8c-3.7-0.4-7.5-0.8-11.3-0.8
				c-7.5,0.1-13.7,0.7-19.2,2.1c-20.5,5.1-36.8,16.9-50.1,27.8c-13.6,11.2-22.9,25.5-32.8,41.8c-5,8.3-9.5,16.8-13.7,24.9
				c-5.2,10.1-8.3,19.6-9.3,29c-0.9,7.9,0,16.2,2.9,26.9c0.3,1.3,0.7,2.5,1,3.8c2.5,9,5,18.3,6.2,27.6C15,711.4,11,726.1,1,738.6
				c-4.4,5.5-8.9,10.9-13.3,16.2s-9,10.7-13.3,16.2c-8.9,11.1-17.8,22.5-26.4,33.6c-3.9,5-7.7,9.9-11.6,14.9
				c-14.8,18.9-26,39.5-38.1,62.5c-2.7,5.2-4.6,11-5.1,16.3c-0.9,8.2,2.9,15.4,11.2,21.2c1.7,1.2,3.6,2.1,5.5,2.9
				c1.2,0.5,2.4,1.1,3.5,1.7c0.8,0.5,1.6,1.1,2.3,1.7c0.3,0.3,0.6,0.5,1,0.8c0.2,0.2,0.3,0.5,0.1,0.8c-0.2,0.2-0.5,0.3-0.8,0.1
				c-0.3-0.3-0.7-0.5-1-0.8c-0.7-0.6-1.4-1.2-2.1-1.6c-1.1-0.6-2.3-1.1-3.4-1.7c-1.9-0.9-3.9-1.8-5.7-3
				c-8.7-6.1-12.6-13.5-11.7-22.2c0.6-5.4,2.5-11.3,5.3-16.7c12.1-23.1,23.3-43.7,38.2-62.7c3.9-5,7.7-9.9,11.6-14.9
				c8.6-11,17.5-22.5,26.4-33.6c4.4-5.5,8.9-10.9,13.3-16.2s8.9-10.7,13.3-16.2c9.8-12.3,13.7-26.7,11.7-42.8
				c-1.2-9.2-3.7-18.5-6.2-27.4c-0.3-1.3-0.7-2.5-1-3.8c-3-10.8-3.9-19.2-3-27.3c1.1-9.5,4.2-19.1,9.5-29.4
				c4.2-8.1,8.7-16.7,13.7-25c9.9-16.3,19.3-30.8,33-42.1c13.4-11,29.8-22.9,50.5-28c5.5-1.4,11.9-2.1,19.4-2.1
				c3.8,0,7.7,0.4,11.4,0.8c3,0.3,6,0.6,9,0.8c7.3,0.3,15.3,0.3,25.3,0c11-0.3,20.2-3.4,28.2-9.6c7.9-6.2,15.4-14,23.6-24.7
				c12-15.5,27.9-27.6,50.2-38.1l1.4-0.6c9.4-4.4,19.2-9,27.7-15.4c16.2-12.2,28.5-29.4,38.5-54.2c4.4-11,9.3-20.3,14.8-28.6
				c8.4-12.6,23.2-17.3,37.9-12.1c9.4,3.4,18.5,8.6,28.6,16.6c2.4,1.9,4.9,3.9,7.2,5.8c4.4,3.6,8.9,7.3,13.6,10.6
				c4.3,3.1,8.7,4.3,12.6,3.5c3.7-0.8,6.9-3.4,9.3-7.5c2-3.4,3.8-7.5,5.2-12.2c1.5-4.9,3-10,4.4-14.9c1.3-4.7,2.7-9.5,4.2-14.3
				c3.9-12.5,11.9-20.5,24.5-24.3c13.7-4.2,28.2-6.1,43.1-5.5c8.5,0.3,15.2,2,21,5.3c9,5.2,15.1,13.3,18.5,24.9
				c2.9,10,5.7,20.3,8.4,30.2c1.6,6,3.3,12.2,5,18.3c5.5,19.8,11.5,40.9,17.6,62.2c6.5,22.7,19.6,40.2,38.8,52
				c8.1,5,16.7,9.6,24.9,14.1l3.9,2.1c14.4,7.8,26.1,15,36.6,22.6l0.7,0.5c10.4,7.4,21.1,15.1,29.2,25.6
				c8.9,11.4,14.1,23.4,15.4,35.8c1.6,14.5-1.3,28.4-8.7,41.4c-6.8,12-16,22.2-24.9,32.1l-0.2,0.2c-11.8,13.1-20.2,26.4-25.5,40.6
				c-2.1,5.7-4.6,11.4-7,16.9c-0.6,1.3-1.1,2.6-1.7,3.9c-2.6,5.9-6.2,10-10.9,12.1c-4.8,2.2-11.2,4.8-17.7,5.6
				c-13.3,1.7-26.8,2.8-39.9,3.9l-5.8,0.5c-8.6,0.7-17.3,1.3-25.8,1.9c-4.6,0.3-9.3,0.6-13.9,1c-9.8,0.7-17.1,5.1-21.6,13.1
				c-3.1,5.5-3.4,12-3.4,17.6c0.2,10,1.1,20.1,2,29.8c0.7,7.2,0.1,12.9-1.9,17.8c-3.9,9.6-12,14-24.7,13.5c-13.1-0.5-26.1-4.9-41-14
				c-7-4.3-14-8.9-20.8-13.4c-6-3.9-12.1-8-18.3-11.8c-8.4-5.2-19.8-11.7-32.5-15.5c-17.3-5-34.6-2.6-49.3,0.4
				c-10.1,2.1-20.3,3.2-30.3,3.4c-3.2,0.1-6.5-0.2-9.6-0.5c-2.5-0.2-5.1-0.4-7.6-0.5c-11-0.2-19.5-0.2-27.4,0.1
				c-3.3,0.1-6.7,1.1-9.7,2c-8.1,2.5-13.6,8.4-19.4,15.3c-7.4,8.7-14.5,17.5-20.4,24.9c-1.2,1.5-2.4,2.9-3.5,4.4
				c-4.3,5.3-8.8,10.9-12.5,16.7c-5.4,8.6-5.4,17.2-0.2,25c4.2,6.2,10,11.6,17.1,15.9c11.1,6.7,23.8,12,37.7,15.5
				c12.4,3.2,25.5,6.7,38.3,10.6c9.8,3,19.3,6.8,27.8,10.2c2.7,1.1,5.2,2.5,7.6,4c1.1,0.7,2.2,1.3,3.4,1.9c0.3,0.1,0.4,0.5,0.2,0.7
				C366.7,927.4,366.5,927.5,366.4,927.5z"/>
		</g>
		<g>
			<path class="st1" d="M0.9,928.5H0.8c-0.3-0.1-0.5-0.3-0.4-0.6c0.4-2.2-0.9-3-2.5-4c-0.5-0.3-1.1-0.7-1.6-1.1
				c-5.7-4.9-12.1-7.5-19-7.9c-8.3-0.4-16.5-0.5-26.3-0.4c-7.8,0.1-14.9-1.5-21.3-4.7c-6.1-3-9.7-8.1-10.9-15.5
				c-0.8-4.9,0.4-9.3,1.7-14l0.3-1c3.5-12.5,8.5-23.8,15.1-33.4c12.3-18.2,25.6-37,40.7-57.7c11.3-15.4,23.2-30.5,34.4-44.7
				c11.4-14.4,15.6-31.9,12.7-53.7c-0.6-4.5-1.8-9-2.9-13.4c-0.6-2.5-1.3-5.1-1.9-7.6c-0.4-2-0.9-3.9-1.4-5.8
				c-1.3-5.5-2.6-11.1-3.1-16.7c-0.7-9.6,1.3-19.6,6.3-30.4c6.3-13.9,13.9-27.2,22.4-39.5c12.8-18.4,28.5-31.9,48-41.3
				c12.5-6,25.9-9,41-9c5.3,0,10.6,0.3,15.8,0.6c4,0.3,8.2,0.5,12.3,0.6c3.7,0.1,7.4-0.1,11.1-0.3c2.2-0.1,4.5-0.2,6.8-0.3
				c11.9-0.3,23-4.4,33-12.2c9.6-7.4,17.3-16.9,24.2-25.2c8.5-10.3,16.8-17.6,26.1-22.7c6.5-3.6,13.4-5.9,20.2-8.2
				c1.9-0.6,3.8-1.3,5.7-1.9c1.9-0.7,3.7-1.3,5.6-1.9c9.9-3.3,20.1-6.8,28.6-13.2c12.8-9.5,21-18.9,25.8-29.6
				c4.4-9.7,8.5-19.7,12.5-29.4l0.9-2.2c3.3-8,6.4-15,11.8-20.9c5.2-5.6,10.8-8.1,17.3-7.6c6.9,0.5,13.1,3.1,17.8,7.3
				c6.5,5.8,12.7,12.1,18.7,18.1c3.1,3.1,6.3,6.4,9.6,9.5l1.1,1.1c2.5,2.5,5.1,5,8,6.9c10.4,6.8,24.3,5.4,32.3-3.3
				c6.4-6.9,10.8-15.5,13.5-26.2c0.7-2.9,1.5-5.8,2.2-8.8c1.7-7,3.5-14.1,5.6-21.1c3.8-12.2,10.3-20.2,19.9-24.3
				c9.2-4,17.2-5.6,25.2-5.1c15.1,1,27.9,10.8,32.4,25.1c4,12.5,8,25.2,11.8,37.5l1.6,5.1c1.4,4.4,2.7,8.8,4.1,13.2
				c2.1,6.8,4.3,13.9,6.5,20.9c5.5,17.2,10.7,32.6,18.8,47c8.6,15.2,19,26.2,31.9,33.7c6.2,3.6,12.8,7,19.1,10.2
				c4.9,2.5,10,5.1,14.8,7.8c13.4,7.4,27.8,15.7,41.3,25.9c13.7,10.3,22.1,20.4,27.3,32.5c6.3,14.7,6.6,29.2,0.9,44.4
				c-4.7,12.4-12.7,22.2-21.9,32.9c-1.8,2.1-3.7,4.2-5.6,6.3c-4.9,5.5-10,11.2-14.3,17.3c-6.5,9.2-12.2,19.1-17.8,28.7l-2,3.5
				c-6,10.3-14.3,17.2-25.3,21c-8,2.8-16.1,4.5-24.8,5.1c-1.8,0.1-3.5,0.3-5.3,0.4c-8.2,0.7-16.7,1.4-25,1.2
				c-6.5-0.2-13-0.9-19.4-1.7c-4-0.5-8.2-1-12.3-1.3l-1.1-0.1c-5.5-0.4-11.2-0.9-16.6-0.1c-6.9,1-11,6.4-14.4,12.2
				c-2.9,4.9-4.6,10.7-5.1,17.7c-0.4,5.7-0.6,11.5-0.7,17.2c0,1.4-0.1,2.8-0.1,4.2c0,1.7,0,3.4,0,5.1c0,5.8,0,11.8-1.7,17.6
				c-2.6,8.5-10.6,14.3-17.8,12.9c-5.9-1.2-11.7-3.2-17-5.2c-7-2.7-13.1-7-19-11.2c-2-1.4-4-2.9-6.1-4.2l-1.4-1
				c-13.1-8.7-26.6-17.8-40.6-25.5c-14.5-8-29.4-11.5-45.4-10.7c-2.8,0.1-6.2,0.3-9.4,0.7c-3.3,0.4-6.7,0.9-9.9,1.3
				c-4.7,0.6-9.5,1.3-14.3,1.8c-10.5,1.1-20.9-0.5-31-2.1l-0.8-0.1c-10.7-1.7-21.8-3.4-33.3-2.1c-10,1.2-18.3,3.9-25.4,8.5
				c-10.3,6.6-17.1,16.7-21.9,24.8c-10.5,18.2-21,31.8-32.8,42.8c-4.8,4.5-8.7,10.2-12.6,16c-4.3,6.5-3.2,18.6,2.3,25
				c7.5,8.8,16.9,16.3,29.4,23.4c17.1,9.8,36.9,16.8,60.7,21.7l3.2,0.6c13.8,2.8,28,5.7,41.5,10.6c0.8,0.3,1.4,0.7,2.1,1.2
				c0.3,0.2,0.6,0.4,0.9,0.6c0.3,0.2,0.3,0.5,0.2,0.8c-0.2,0.3-0.5,0.3-0.8,0.2c-0.3-0.2-0.6-0.4-0.9-0.6c-0.6-0.4-1.2-0.8-1.8-1.1
				c-13.4-4.9-27.6-7.8-41.3-10.6l-3.2-0.6c-23.9-4.9-43.8-12-61-21.8c-12.7-7.2-22.1-14.7-29.7-23.7c-5.8-6.8-6.9-19.4-2.3-26.3
				c3.9-5.9,7.8-11.6,12.8-16.2c11.7-10.9,22.1-24.4,32.9-42.5c4.9-8.1,11.8-18.4,22.3-25.1c7.2-4.7,15.7-7.5,25.8-8.7
				c11.6-1.3,22.8,0.4,33.6,2.1l0.8,0.1c10,1.6,20.4,3.2,30.7,2.1c4.8-0.5,9.6-1.2,14.3-1.8c3.3-0.4,6.6-0.9,10-1.3
				c3.3-0.4,6.7-0.6,9.5-0.7c16.3-0.7,31.3,2.8,46,10.9c14.1,7.7,27.6,16.8,40.7,25.5l1.4,1c2.1,1.4,4.1,2.8,6.1,4.2
				c5.9,4.2,11.9,8.5,18.8,11.1c5.3,2,10.9,4,16.8,5.2c6.7,1.3,14.1-4.1,16.6-12.1c1.7-5.6,1.7-11.5,1.7-17.2c0-1.7,0-3.4,0-5.1
				c0-1.4,0.1-2.8,0.1-4.2c0.1-5.7,0.2-11.5,0.7-17.2c0.5-7.1,2.3-13.1,5.3-18.2c3.6-6,7.9-11.7,15.2-12.7
				c5.5-0.8,11.3-0.3,16.9,0.1l1.1,0.1c4.1,0.3,8.3,0.8,12.3,1.3c6.3,0.7,12.8,1.5,19.3,1.6c8.3,0.2,16.7-0.5,24.9-1.2
				c1.8-0.1,3.5-0.3,5.3-0.4c8.6-0.7,16.6-2.3,24.5-5.1c10.8-3.7,18.8-10.5,24.7-20.6l2-3.5c5.6-9.6,11.3-19.6,17.8-28.8
				c4.3-6.1,9.4-11.9,14.4-17.4c1.8-2.1,3.7-4.2,5.6-6.3c9.1-10.5,17-20.3,21.7-32.5c5.6-14.9,5.3-29.2-0.9-43.6
				c-5.2-12-13.5-21.9-27-32.1c-13.4-10.2-27.7-18.4-41.1-25.9c-4.9-2.7-9.9-5.3-14.8-7.8c-6.4-3.3-12.9-6.6-19.2-10.3
				c-13.1-7.6-23.6-18.8-32.3-34.2c-8.2-14.5-13.4-30-18.9-47.2c-2.2-6.9-4.4-14-6.5-20.9c-1.4-4.4-2.7-8.8-4.1-13.2l-1.6-5.1
				c-3.8-12.3-7.8-25-11.8-37.5c-4.4-13.8-16.8-23.4-31.5-24.3c-7.9-0.5-15.5,1-24.7,5c-9.4,4-15.5,11.5-19.3,23.6
				c-2.1,6.9-3.9,14.1-5.6,21c-0.7,2.9-1.4,5.9-2.2,8.8c-2.8,10.8-7.3,19.6-13.8,26.6c-8.3,9.1-22.8,10.6-33.7,3.5
				c-3-1.9-5.6-4.5-8.2-7l-1.1-1.1c-3.2-3.1-6.4-6.4-9.6-9.5c-6-6-12.2-12.3-18.7-18.1c-4.5-4.1-10.5-6.5-17.1-7.1
				c-6.1-0.5-11.5,1.9-16.4,7.3c-5.2,5.7-8.3,12.7-11.6,20.5l-0.9,2.2c-4,9.7-8.1,19.8-12.5,29.5c-4.9,10.9-13.2,20.4-26.2,30.1
				c-8.7,6.5-19,10-28.9,13.3c-1.9,0.6-3.7,1.3-5.6,1.9c-1.9,0.7-3.8,1.3-5.7,1.9c-6.7,2.2-13.6,4.5-20,8.1
				c-9.2,5.1-17.4,12.2-25.8,22.5c-6.9,8.4-14.7,17.8-24.3,25.4c-10.2,8-21.6,12.2-33.7,12.5c-2.3,0.1-4.6,0.2-6.8,0.3
				c-3.7,0.2-7.4,0.4-11.2,0.3c-4.1-0.1-8.3-0.4-12.3-0.6c-5.2-0.3-10.5-0.7-15.8-0.6c-14.9,0.1-28.2,3-40.6,8.9
				c-19.4,9.3-34.9,22.7-47.6,41c-8.5,12.3-16,25.5-22.3,39.3c-4.9,10.7-6.9,20.5-6.2,29.9c0.4,5.5,1.8,11.1,3,16.6
				c0.5,2,0.9,3.9,1.4,5.9c0.6,2.5,1.2,5.1,1.9,7.6c1.1,4.4,2.3,9,2.9,13.6c2.9,22.1-1.4,39.9-13,54.5C0.9,758.5-11,773.6-22.3,789
				c-15.1,20.6-28.4,39.5-40.7,57.6c-6.5,9.6-11.5,20.7-14.9,33.1l-0.3,1c-1.3,4.5-2.5,8.8-1.7,13.5c1.1,7,4.5,11.8,10.3,14.7
				c6.3,3.1,13.2,4.6,20.8,4.6c9.8-0.1,18-0.1,26.4,0.4C-15.6,914.2-9,917-3,922c0.4,0.3,0.9,0.6,1.4,1c1.6,1,3.6,2.2,3,5.1
				C1.4,928.4,1.1,928.5,0.9,928.5z"/>
		</g>
		<g>
			<path class="st1" d="M27.2,928.9c-0.2,0-0.5-0.2-0.5-0.4c-0.3-1-0.5-2-0.7-3c-0.5-2.1-1-4.4-1.8-6.4c-2.6-6.7-6.5-15.3-13.2-22.3
				c-3-3.2-6.1-6.3-9.2-9.4c-4.7-4.8-9.6-9.8-14.3-14.9c-7.7-8.3-10.4-17.8-7.9-28.2c3.6-15.1,8.6-27.7,15.3-38.7
				c7.1-11.6,14.6-23.2,22-34.4c3.5-5.3,7.1-10.8,10.6-16.3c5.4-8.4,10-17.2,13.7-26.3c5.6-13.7,4.8-28,3.3-40.1
				c-0.7-6-2.1-12.1-3.4-18c-0.8-3.7-1.7-7.5-2.4-11.2l-0.3-1.5c-0.8-4.5-1.7-9.2-1.4-13.7c0.8-10.6,3.1-19.8,6.9-28
				c7.9-17,17.3-30.3,28.9-40.6c17.2-15.3,37.8-23.2,61.2-23.6c5.2-0.1,10.5-0.1,15.6-0.1c13.5,0,27.5,0,41.3-1.4
				c6.3-0.7,11.3-1.6,15.7-2.8c11.4-3.2,21.6-9.3,30.4-18.1c2.3-2.3,4.6-4.6,6.9-6.9c3.5-3.5,7.1-7.1,10.7-10.7
				c5.4-5.2,11.9-11,19.6-14c11.9-4.6,24.1-8.2,35.5-11.4c21.4-6,38.5-15.5,52.1-29.1c2.7-2.7,5.4-5.5,8.1-8.2
				c5.9-6,12-12.2,18.3-18.1c7-6.5,15.4-8.4,25.1-5.5l1.8,0.5c10.7,3.2,21.7,6.4,33.2,7c10.9,0.6,20.7-1.1,30-5.1
				c14.3-6.2,26.1-16.4,35.3-30.3c2.7-4.2,5.4-8.5,8.1-12.6c2.6-4.2,5.4-8.5,8.1-12.7c4.9-7.5,10.4-9.5,16.8-6.1
				c2.7,1.5,5.3,3.8,7.2,6.5c3.9,5.5,8.3,12.1,12,19c12.4,23.2,23.6,44.2,34.4,65.7c8,16,17.9,29,30.3,39.8c4.4,3.8,9.4,7.2,15,10.1
				c7.3,3.8,14.9,7.5,22.1,11.1c8.4,4.2,17.1,8.5,25.6,12.9c13.1,7,23.5,14.7,31.8,23.6c7.7,8.3,12.4,18.7,13.6,30.2
				c1,9.9-1.7,20.2-7.8,29.7c-4.4,6.9-9.8,13.4-15,19.7c-1.1,1.3-2.2,2.6-3.2,3.9c-3.2,4-6.6,7.9-9.9,11.7
				c-5.6,6.5-11.5,13.3-16.6,20.4c-13.7,18.9-28.7,29.1-47.3,32l-1,0.2c-6.3,1-12.8,2-19.2,1.5c-12-1-23.2-5-33.3-11.9
				c-4.2-2.8-8.3-5.8-12.3-8.6c-3.3-2.4-6.8-4.8-10.2-7.2c-7.6-5.2-16.9-4.5-23.2,1.6c-5.4,5.2-9,11.6-11.8,17.1
				c-3.4,6.8-6.8,13.7-10.1,20.3c-2.9,5.9-5.9,12-8.9,17.9c-5.1,10.2-14,15-23.8,12.8c-6.5-1.4-13.3-3.8-20.5-7
				c-7-3.2-14-6.7-20.8-10.1c-4.4-2.2-8.9-4.5-13.3-6.6c-4.6-2.2-8.5-3.8-12.2-4.9c-8.9-2.6-18.4-3.1-27.5-3.5l-2.2-0.1
				c-8.9-0.4-17.7-0.8-26.4-1.4c-4.5-0.3-9.2-0.7-13.6-1c-6.5-0.5-13.2-1-19.8-1.4c-10.4-0.5-20.9,1.1-29.7,2.8
				c-11.4,2.1-22.9,4.5-33.7,6.7c-7.8,1.6-16,3.5-23.4,7.4c-7.8,4.1-14.5,10.6-20.1,19.1c-2.8,4.3-5.4,8.8-7.9,13.2
				c-1.9,3.3-3.8,6.7-5.9,9.9c-4.6,7.4-10.3,15.9-18.3,23.1c-5.9,5.3-11.3,10.8-16.1,16.4c-11.2,13-16.3,29.3-15.3,48.4
				c0.2,4.5,1.6,8.9,4,13.1c4.6,8,11.7,14.5,21.7,19.7c11,5.8,21.8,11.4,32.7,16.5l4,1.8c12.7,5.9,25.9,12,39.8,15.5
				c1,0.2,1.7,1.1,2.5,1.9c0.3,0.4,0.6,0.7,0.9,1c0.2,0.2,0.2,0.5,0,0.8s-0.6,0.2-0.8,0c-0.4-0.3-0.7-0.7-1-1
				c-0.6-0.7-1.3-1.4-1.9-1.6c-14-3.5-27.2-9.6-40-15.6l-4-1.8c-10.9-5-21.7-10.7-32.7-16.5c-10.1-5.4-17.4-11.9-22.1-20.2
				c-2.5-4.4-3.9-8.9-4.1-13.6c-1-19.4,4.2-36,15.6-49.2c4.9-5.7,10.3-11.2,16.2-16.5c7.9-7.1,13.5-15.5,18.1-22.8
				c2-3.3,4-6.6,5.8-9.9c2.5-4.4,5.1-8.9,8-13.2c5.7-8.7,12.6-15.3,20.5-19.5c7.5-4,15.8-5.9,23.7-7.5c10.8-2.2,22.4-4.5,33.7-6.7
				c8.9-1.7,19.5-3.3,30-2.8c6.6,0.3,13.3,0.9,19.8,1.4c4.5,0.3,9.1,0.7,13.6,1c8.7,0.6,17.4,1,26.3,1.4l2.2,0.1
				c9.2,0.4,18.7,0.9,27.7,3.5c3.8,1.1,7.7,2.7,12.4,4.9c4.5,2.2,9,4.4,13.4,6.6c6.8,3.4,13.8,6.9,20.8,10.1
				c7.1,3.2,13.9,5.5,20.3,7c9.2,2,17.7-2.5,22.5-12.2c3-6,6-12.1,8.9-17.9c3.3-6.7,6.7-13.6,10.1-20.3c2.8-5.6,6.5-12.1,12-17.4
				c6.7-6.5,16.6-7.2,24.6-1.8c3.4,2.4,6.9,4.8,10.2,7.2c4,2.8,8.2,5.8,12.3,8.6c10,6.7,21,10.7,32.8,11.7
				c6.2,0.5,12.7-0.5,18.9-1.5l1-0.2c18.2-2.9,33-12.9,46.5-31.6c5.2-7.1,11-13.9,16.7-20.5c3.3-3.8,6.7-7.7,9.9-11.7
				c1.1-1.3,2.1-2.6,3.2-3.9c5.2-6.3,10.5-12.7,14.9-19.6c6-9.3,8.6-19.4,7.6-29c-1.2-11.2-5.8-21.5-13.3-29.6
				c-8.2-8.8-18.5-16.4-31.5-23.3c-8.4-4.5-17.1-8.8-25.5-12.9c-7.3-3.6-14.8-7.3-22.2-11.2c-5.6-2.9-10.8-6.4-15.2-10.3
				c-12.4-10.8-22.4-23.9-30.5-40.1c-10.8-21.6-22-42.5-34.4-65.7c-3.7-6.8-8.1-13.4-11.9-18.9c-1.7-2.5-4.2-4.7-6.8-6.1
				c-5.9-3.2-10.7-1.4-15.4,5.7c-2.7,4.2-5.5,8.5-8.1,12.7c-2.6,4.1-5.3,8.4-8.1,12.6c-9.3,14.1-21.3,24.5-35.7,30.7
				c-9.4,4.1-19.4,5.8-30.4,5.2c-11.6-0.6-22.7-3.9-33.4-7.1l-1.8-0.5c-9.3-2.7-17.4-1-24,5.3c-6.2,5.9-12.4,12.1-18.3,18.1
				c-2.7,2.7-5.4,5.5-8.1,8.2c-13.8,13.7-31,23.3-52.6,29.4c-11.4,3.2-23.5,6.7-35.4,11.3c-7.5,2.9-13.9,8.6-19.2,13.8
				c-3.6,3.5-7.2,7.1-10.7,10.7c-2.3,2.3-4.6,4.6-6.9,6.9c-8.9,8.9-19.3,15-30.8,18.3c-4.5,1.3-9.6,2.2-15.9,2.9
				c-13.8,1.4-27.8,1.4-41.4,1.4c-5.1,0-10.4,0-15.6,0.1c-23.2,0.3-43.5,8.2-60.5,23.3c-11.5,10.2-20.9,23.4-28.7,40.3
				c-3.7,8.1-6,17.1-6.8,27.6c-0.3,4.4,0.5,9,1.4,13.4l0.3,1.5c0.7,3.7,1.5,7.5,2.3,11.2c1.3,5.9,2.7,12,3.4,18.1
				c1.5,12.3,2.3,26.7-3.4,40.7c-3.7,9.1-8.3,18-13.8,26.4c-3.5,5.5-7.1,11-10.6,16.3c-7.3,11.2-14.9,22.8-21.9,34.4
				c-6.6,10.9-11.6,23.5-15.2,38.4c-2.4,10.1,0.1,19.3,7.6,27.2c4.7,5,9.6,10,14.3,14.9c3.1,3.1,6.1,6.3,9.2,9.4
				c6.9,7.1,10.8,15.9,13.4,22.7c0.8,2.1,1.3,4.4,1.8,6.5c0.2,1,0.5,2,0.7,3c0.1,0.3-0.1,0.6-0.4,0.7
				C27.3,928.9,27.3,928.9,27.2,928.9z"/>
		</g>
		<g>
			<path class="st1" d="M38.8,928.5c-0.3,0-0.5-0.2-0.5-0.5c-0.1-0.6-0.1-1.3-0.2-1.9c-0.1-1.3-0.2-2.7-0.5-4
				c-2.9-13-6.9-23.3-12.5-32.6c-5.9-9.7-11.4-19.9-16.7-29.7l-1.6-3c-4.5-8.3-5.6-17.7-3.3-29.5c2.6-13.5,8.2-27.3,17-42
				c3.1-5.2,6.2-10.3,9.3-15.5c5.4-9,11-18.2,16.3-27.4c4.7-8,7.8-16.8,9.2-26.1c1.2-7.6,1.1-15.8-0.2-25.9c-0.5-4-1.2-8-1.9-11.8
				c-0.5-2.8-1-5.7-1.5-8.5l-0.5-3.2c-0.9-5.8-1.8-11.7-2.3-17.6c-0.5-7.6,0.8-15.8,4.2-25.2c6.2-17.2,16-31.1,29-41.3
				c15.3-12,34-18.2,55.8-18.4c3,0,6,0.1,8.9,0.1c3.2,0.1,6.5,0.2,9.7,0.1c10-0.2,21.8-0.5,33.7-1.1l2-0.1
				c5.6-0.3,11.4-0.6,16.7-2.1c8.2-2.4,16.1-6.3,22.1-9.3c8.7-4.5,16-11.2,23-17.6c1.3-1.2,2.6-2.4,4-3.6c9.7-8.8,19.3-15,29.4-19
				c7.9-3.1,16.1-5.7,24.1-8.2c1.5-0.5,2.9-0.9,4.4-1.4c15.8-5,29.4-11.4,41.6-19.7c7.6-5.1,15.1-10.6,22.4-15.9
				c3.8-2.8,7.6-5.5,11.4-8.2c7-5,13.6-7.7,20.3-8.4c10.4-1.1,21-1.6,31.3-2l3.5-0.2c9.9-0.5,19.8-2.4,29.3-5.7
				c13.6-4.7,26-12.7,36.5-19.8c6.7-4.6,13.8-8.8,20.7-12.9l0.8-0.5c3.6-2.2,7.6-2.5,12.7-1.2c6.3,1.7,11.9,5.3,16.6,10.9
				c6,7,11.9,15.2,18,24.9c4.1,6.5,8,13.2,11.8,19.6c3.9,6.7,8,13.6,12.2,20.3c5.3,8.3,12.1,15.9,20.2,22.8
				c9.7,8.2,20.9,13.4,33.6,18.9c13.4,5.8,29,13.2,43.4,23.6c7.9,5.7,17.5,13.8,22,26.3l0.3,0.7c1.9,5.4,3.9,11,2.8,16.8
				c-2.1,11.7-6.8,21.8-13.7,30.1c-8,9.5-16.2,19.3-24.6,29.2c-1.4,1.7-2.9,3.4-4.3,5.1c-4.2,5-8.5,10.1-13,14.9
				c-7.6,8-16.7,13.9-26.9,17.4c-11,3.8-21.2,4.3-31.3,1.6c-11.7-3.2-21.7-9.6-32.6-21c-0.9-0.9-1.7-1.8-2.6-2.7
				c-4.2-4.4-8.5-9-13.2-13c-11.6-9.9-23.3-9.4-33.7,1.3c-5.3,5.4-8.3,12.2-11.3,18.8c-0.9,2-1.8,4.1-2.8,6.1
				c-0.8,1.7-1.6,3.4-2.5,5.1c-4.4,9.1-8.9,18.4-15.3,26.6c-8.2,10.5-18.1,13.4-31.1,9.2c-11.1-3.6-22.1-8.2-32.7-12.6l-0.8-0.3
				c-13.2-5.5-27.5-8.9-43.8-10.5c-6.3-0.6-12.6-1.4-18.8-2.2l-4.1-0.5c-7.9-1-16.9-2.2-25.7-3.5c-12.3-1.8-25.3-0.5-39.8,4
				c-20.8,6.5-42.2,9.1-58.5,10.7c-13.3,1.3-23.1,5.8-30.1,13.7c-5.1,5.8-10,12.6-15.4,21.3c-9.7,15.5-18.9,27.3-29.1,37.2
				c-8.1,7.9-14.2,17.7-18.7,30.1c-4.9,13.6-8.1,28.4-9.7,45.2c-0.9,9.2,0,16.1,3,22.2c5.3,11,14.6,17.2,26.9,23.2
				c8.9,4.3,18,8.4,26.9,12.3l4,1.8c3.4,1.5,6.9,3,10.3,4.4c3.2,1.3,6.5,2.7,9.7,4.1c2.3,1,4.5,2.2,6.7,3.3c1,0.5,2,1,3,1.6
				c0.3,0.1,0.4,0.5,0.2,0.7c-0.1,0.3-0.5,0.4-0.7,0.2c-1-0.5-2-1-3-1.6c-2.2-1.1-4.4-2.3-6.6-3.3c-3.2-1.4-6.5-2.8-9.6-4.1
				c-3.4-1.4-6.9-2.9-10.4-4.4l-4-1.8c-8.9-3.9-18.1-8-26.9-12.3c-12.5-6.1-21.9-12.5-27.4-23.7c-3-6.3-4-13.3-3.1-22.8
				c1.6-16.9,4.8-31.7,9.8-45.5c4.5-12.6,10.7-22.6,19-30.6c10.1-9.8,19.3-21.6,28.9-37c5.5-8.8,10.4-15.6,15.5-21.5
				c7.1-8.2,17.2-12.8,30.8-14.1c16.3-1.6,37.6-4.2,58.3-10.7c14.6-4.6,27.8-5.9,40.3-4c8.8,1.3,17.7,2.5,25.6,3.5l4.1,0.5
				c6.1,0.8,12.5,1.7,18.7,2.2c16.4,1.5,30.8,5,44.1,10.6l0.8,0.3c10.6,4.4,21.5,9,32.6,12.6c12.6,4.1,21.9,1.3,29.9-8.8
				c6.3-8,10.8-17.4,15.2-26.4c0.8-1.7,1.6-3.4,2.5-5.1c1-2,1.9-4.1,2.8-6.1c3-6.7,6.1-13.6,11.5-19.1c10.7-11,23.2-11.5,35.2-1.3
				c4.7,4,9.1,8.6,13.3,13.1c0.9,0.9,1.7,1.8,2.6,2.7c10.7,11.2,20.6,17.6,32.1,20.7c9.9,2.7,19.9,2.2,30.6-1.5
				c10-3.5,18.9-9.2,26.4-17.1c4.5-4.8,8.8-9.9,13-14.9c1.4-1.7,2.9-3.4,4.3-5.1c8.4-9.8,16.6-19.7,24.6-29.2
				c6.9-8.2,11.4-18.1,13.5-29.6c1-5.5-0.9-10.9-2.8-16.2l-0.3-0.7c-4.3-12.1-13.3-19.8-21.6-25.8c-14.3-10.3-29.8-17.6-43.2-23.4
				c-12.7-5.6-24.1-10.8-33.9-19.1c-8.2-6.9-15.1-14.6-20.4-23c-4.3-6.7-8.3-13.6-12.3-20.3c-3.8-6.5-7.7-13.2-11.8-19.6
				c-6.1-9.7-12-17.8-17.9-24.8c-4.6-5.4-10-9-16.1-10.6c-4.8-1.3-8.5-0.9-11.9,1.1l-0.8,0.5c-6.8,4.1-13.9,8.3-20.6,12.9
				c-10.5,7.2-23,15.2-36.7,20c-9.7,3.3-19.7,5.3-29.6,5.8l-3.5,0.2c-10.3,0.5-20.9,1-31.2,2c-6.5,0.7-13,3.4-19.8,8.2
				c-3.8,2.7-7.6,5.5-11.4,8.2c-7.3,5.3-14.8,10.8-22.4,15.9c-12.3,8.3-26,14.8-41.9,19.8c-1.5,0.5-2.9,0.9-4.4,1.4
				c-7.9,2.5-16.1,5.1-24,8.2c-10,4-19.5,10.1-29.1,18.7c-1.3,1.2-2.6,2.4-4,3.6c-7.1,6.5-14.4,13.3-23.2,17.8
				c-6,3.1-14,6.9-22.2,9.4c-5.4,1.6-11.3,1.9-17,2.2l-2,0.1c-11.9,0.6-23.7,0.9-33.8,1.1c-3.3,0.1-6.6,0-9.8-0.1
				c-2.9-0.1-5.9-0.2-8.9-0.1c-21.5,0.2-40.1,6.3-55.1,18.2c-12.8,10.1-22.5,23.8-28.7,40.8c-3.3,9.2-4.7,17.2-4.1,24.7
				c0.4,5.9,1.4,11.8,2.2,17.5l0.5,3.2c0.4,2.8,1,5.7,1.5,8.5c0.7,3.9,1.4,7.9,2,11.9c1.3,10.2,1.3,18.5,0.2,26.2
				c-1.5,9.5-4.6,18.4-9.3,26.5c-5.4,9.2-10.9,18.5-16.3,27.4c-3.1,5.2-6.2,10.3-9.3,15.5c-8.7,14.6-14.2,28.2-16.8,41.6
				c-2.3,11.5-1.3,20.7,3.1,28.8l1.6,3c5.3,9.8,10.8,19.9,16.7,29.6c5.7,9.4,9.7,19.8,12.6,32.9c0.3,1.4,0.4,2.8,0.6,4.2
				c0.1,0.6,0.1,1.3,0.2,1.9C39.4,928.2,39.2,928.5,38.8,928.5C38.9,928.5,38.9,928.5,38.8,928.5z"/>
		</g>
		<g>
			<path class="st1" d="M51.5,928.5c-0.3,0-0.5-0.2-0.5-0.5c-0.3-2.2-0.6-4.4-0.8-6.6c-0.6-4.8-1.2-9.7-2-14.5
				c-2.1-11.5-6-22.4-11.8-32.5c-0.7-1.2-1.4-2.5-2.2-3.7c-2.7-4.7-5.6-9.6-7.6-14.7c-5.8-14.5-6.8-29.6-3-44.9
				c3.5-14.3,10.4-27.1,16.7-37.7c1.5-2.5,2.9-5,4.4-7.5c6.4-10.6,13-21.6,17.4-33.5c4.1-11.2,5.5-22.4,4-33.5
				c-0.8-6.3-1.9-12.8-3-19c-1.1-6.6-2.3-13.3-3.1-20c-0.8-5.8-0.8-12.1,0-18c1.2-9.5,5.2-18.2,9.4-26.2
				c8.1-15.6,20.2-26.5,35.8-32.2c9.6-3.5,20.1-5.3,32.2-5.6c12-0.2,24.2-0.2,36-0.1c6,0,12.1,0,18.1,0c13.9,0,27-3.4,39-9.9
				c7.3-4,14.7-8.9,23.5-15.4c12.2-9.1,22.5-16.5,34.3-22.4c10-4.9,20.2-9.8,30.1-14.5c10.4-4.9,21.2-10,31.6-15.2
				c17.2-8.6,34.6-18,49.9-26.3c13.1-7.1,24.6-11.3,36-13.1c8.6-1.3,17.7-3.1,27.7-5.3c15-3.3,28.7-9.7,43.8-17.1
				c6.3-3.1,13.1-6.2,20.8-9.5c8.1-3.5,15.9-2.9,24.1,1.6c12.1,6.7,19.9,17,25.4,25.3c3.4,5.1,6.7,10.3,9.9,15.4
				c3.6,5.7,7.4,11.6,11.2,17.3c12.4,18.4,28.5,32.2,47.9,41c12,5.4,24.7,11.4,36.9,18c12.5,6.8,20.9,14.2,26.2,23.3
				c5,8.5,6.9,16.2,5.6,23.5c-1.7,9.6-5.6,18.2-11.6,25.6c-7.4,9-15,18-22.4,26.7l-3.6,4.3c-7.7,9-15.6,16-24.4,21.2
				c-15.2,9-30.5,9.5-45.5,1.4c-8.7-4.7-15.3-11.9-21.8-18.8l-3.5-3.8c-5.9-6.3-11.9-12.9-19.4-17.4c-9.6-5.8-19.7-6.2-29.2-1.3
				c-7.3,3.8-13.4,10.2-18,19c-2.1,4.1-4.2,8.3-6.1,12.4c-1.9,4-3.9,8.1-6,12.1c-0.4,0.8-0.8,1.6-1.2,2.4
				c-3.5,6.9-7.2,13.9-13.7,18.9c-7.4,5.7-15,7.8-22.5,6.3c-5.1-1-10.1-2.6-15-4.2c-1.4-0.4-2.7-0.9-4.1-1.3l-1.7-0.5
				c-16.2-5.1-32.9-10.4-50.2-13c-11.1-1.6-22.3-4.2-33.1-6.6c-4.6-1-9.4-2.1-14.1-3.1c-12.8-2.7-23.4-2.6-33.1,0.4
				c-9.4,2.8-18.5,5.9-27,8.8c-11.5,3.9-23.4,5.8-35.3,5.6c-1.8,0-3.5-0.1-5.3-0.1c-7.2-0.2-14.7-0.5-22,1.3
				c-8.9,2.1-16,4.8-21.6,11c-4.9,5.3-9.3,11-13.6,17.6c-10.3,15.7-20,27.6-30.6,37.4c-3.5,3.3-6.7,7-9.8,10.6l-0.7,0.9
				c-3.9,4.6-6.5,10.4-8.3,18.4c-0.9,3.9-1.6,7.8-2.4,11.7c-0.9,4.7-1.9,9.6-3,14.3c-1.8,7.7-3.8,15.5-5.7,23
				c-1.7,6.8-3.5,13.9-5.1,20.9c-1.8,7.4-1.7,13.8,0.3,19.7c3.7,11.2,11.5,19.6,25.4,27.1c8.2,4.4,17.1,7.7,25.6,11
				c5.8,2.2,11.8,4.4,17.5,7c1.1,0.5,2.2,0.9,3.3,1.2c2.7,0.9,5.4,1.9,7.6,4.1c0.2,0.2,0.2,0.6,0,0.8s-0.6,0.2-0.8,0
				c-2-2.1-4.5-2.9-7.2-3.8c-1.1-0.4-2.3-0.8-3.4-1.3c-5.7-2.6-11.7-4.8-17.5-7c-8.6-3.2-17.5-6.6-25.8-11
				c-14.2-7.6-22.2-16.2-26-27.7c-2-6.1-2.1-12.8-0.3-20.3c1.7-7,3.4-14.1,5.1-20.9c1.9-7.5,3.8-15.3,5.7-23c1.1-4.7,2.1-9.6,3-14.3
				c0.7-3.8,1.5-7.8,2.4-11.7c1.8-8.1,4.5-14.1,8.5-18.8l0.7-0.9c3.1-3.7,6.3-7.4,9.9-10.7c10.5-9.8,20.2-21.6,30.4-37.2
				c4.3-6.6,8.8-12.4,13.7-17.7c5.8-6.3,13.1-9.1,22.2-11.3c7.4-1.8,14.9-1.5,22.3-1.3c1.8,0.1,3.5,0.1,5.3,0.1
				c11.8,0.2,23.6-1.7,35-5.5c8.5-2.9,17.7-5.9,27.1-8.8c9.9-3,20.6-3.1,33.6-0.4c4.7,1,9.5,2.1,14.1,3.1c10.8,2.4,21.9,4.9,33,6.6
				c17.3,2.6,34.1,7.9,50.4,13l1.7,0.5c1.4,0.4,2.7,0.9,4.1,1.3c4.8,1.6,9.8,3.2,14.9,4.2c7.2,1.4,14.5-0.7,21.6-6.1
				c6.3-4.8,9.9-11.8,13.4-18.5c0.4-0.8,0.8-1.6,1.2-2.4c2.1-4,4-8.1,5.9-12.1c1.9-4.1,4-8.3,6.1-12.4c4.8-9,11-15.6,18.5-19.5
				c9.9-5.1,20.4-4.6,30.3,1.4c7.7,4.6,13.8,11.2,19.7,17.6l3.5,3.8c6.4,6.9,12.9,14,21.5,18.6c14.7,7.9,29.6,7.4,44.4-1.4
				c8.6-5.2,16.5-12,24.1-21l3.6-4.3c7.4-8.7,15-17.7,22.4-26.7c5.9-7.2,9.7-15.6,11.4-25c1.2-7-0.6-14.5-5.5-22.8
				c-5.3-8.9-13.5-16.1-25.8-22.9c-12.2-6.6-24.9-12.6-36.8-18c-19.6-8.9-35.8-22.8-48.3-41.4c-3.8-5.7-7.6-11.6-11.2-17.3
				c-3.2-5.1-6.6-10.3-9.9-15.3c-5.4-8.1-13.1-18.3-25-24.9c-8-4.4-15.3-4.9-23.1-1.6c-7.6,3.3-14.4,6.4-20.7,9.5
				c-15.2,7.5-28.9,13.9-44.1,17.2c-10.1,2.2-19.2,3.9-27.8,5.3c-11.3,1.8-22.7,5.9-35.7,13c-15.3,8.3-32.7,17.8-49.9,26.3
				c-10.5,5.2-21.2,10.3-31.7,15.2c-9.9,4.7-20.1,9.5-30.1,14.5c-11.7,5.8-21.9,13.2-34.1,22.3c-8.8,6.6-16.3,11.5-23.6,15.5
				c-12.1,6.6-25.4,10-39.6,10c-6,0-12.1,0-18.1,0c-11.8,0-24-0.1-36,0.1c-12,0.2-22.4,2-31.8,5.5c-15.4,5.7-27.2,16.3-35.2,31.7
				c-4.1,7.9-8.1,16.6-9.3,25.8c-0.8,5.9-0.8,12,0,17.7c0.9,6.7,2,13.5,3.1,20c1.1,6.2,2.1,12.7,3,19c1.5,11.2,0.1,22.7-4.1,34
				c-4.5,12-11.1,23.1-17.5,33.7c-1.5,2.5-3,5-4.4,7.4c-6.2,10.6-13,23.3-16.5,37.4c-3.7,15.1-2.7,30,3,44.3c2,5,4.8,9.8,7.6,14.5
				c0.7,1.2,1.4,2.5,2.2,3.7c5.8,10.2,9.8,21.3,11.9,32.9c0.9,4.8,1.5,9.8,2.1,14.6c0.3,2.2,0.5,4.4,0.8,6.5
				C52.1,928.2,51.9,928.5,51.5,928.5L51.5,928.5z"/>
		</g>
		<g>
			<path class="st1" d="M65.5,928.5c-0.3,0-0.6-0.2-0.6-0.5s0-0.5,0-0.8c0-0.6,0-1.2,0-1.8c0.4-2.8,0.9-5.6,1.4-8.4
				c1-5.9,2-11.9,2.7-17.9c0.5-3.9,0.7-8-1.3-11.6c-1.8-3.3-3.6-6.2-5.6-8.7l-1.4-1.8c-7.2-9.5-14.6-19.3-20-30.3
				c-4.7-9.6-6.6-18.4-5.7-27c1.3-13.2,5.6-26,12.8-38.1c5.1-8.7,10.7-17.3,16.1-25.7c1.3-2,2.6-4,3.9-6c8.8-13.7,12.4-27,11-40.8
				c-1-10-2.7-20.9-5.2-34.4c-2.2-11.4-4.2-24.6-1-37.9c3.4-13.8,10.3-24.9,20.6-32.9c13.5-10.6,30.2-15.3,49.5-14.1
				c9.9,0.6,19.9,1.8,29.5,2.9c3.4,0.4,6.8,0.8,10.2,1.2c8.7,1,17.8,0.3,27.2-1.9c9.9-2.3,19.6-6.5,28.6-12.3
				c15.2-9.8,29.8-20.1,40.8-28c10.4-7.5,20.4-13.2,30.7-17.6l1.7-0.7c11.6-4.9,23.6-10,35.1-15.5c13.8-6.6,27.9-14.4,41.8-23.5
				c12.2-7.9,25.3-13.9,38.8-17.9c5-1.5,10.1-2.9,15-4.3c9-2.5,18.4-5.1,27.4-8.2c9.3-3.2,18.7-6.9,27.7-10.4
				c5.6-2.2,11.3-4.5,17-6.6c6.8-2.5,13.4-4.8,20.5-4.9c12.3-0.2,23,5.1,32.7,16.3c8.8,10.1,15.7,21.8,22.4,33.1l1.5,2.5
				c12.8,21.5,30.8,36.7,55,46.5c11.3,4.6,21.3,9.2,30.6,14.1c9.9,5.2,17.3,12.1,22.1,20.5c2.7,4.7,5.6,10.9,4.5,17.5
				c-1.3,8.4-4.1,15.8-8.4,22.1c-8.3,12.1-17.5,23.1-27.5,32.7c-9.3,8.9-17.7,14.5-26.6,17.6c-11.7,4.1-23.2,1.8-34.2-6.7
				c-7.5-5.8-13.4-13.2-19.1-20.4c-3.1-3.9-6.3-7.9-9.7-11.7c-6.9-7.5-15.8-15.1-28.8-14.2c-0.5,0-1,0.1-1.5,0.1
				c-1,0.1-2.1,0.2-3.1,0.2c-5.9-0.2-11.6,1.6-17.2,5.2c-10.6,6.9-18.8,17-25.8,31.7c-4.1,8.6-8.2,16.9-13.8,24.3
				c-6.6,8.8-15.8,13-26.5,12.3c-5-0.3-9.9-1.6-14.7-2.9c-1.9-0.5-3.9-1-5.8-1.5c-4.3-1-8.6-2-12.9-3.1c-6.9-1.7-14.1-3.4-21.2-5
				c-2.9-0.6-5.9-1.1-8.8-1.6c-3.9-0.7-8-1.3-11.9-2.4c-7.6-2-15.3-4.3-22.7-6.5c-5.9-1.8-12.1-3.6-18.1-5.3
				c-13.6-3.8-27-2.9-39.7,2.7c-8.7,3.8-18.1,7.8-27.8,10.8c-9.2,2.9-18.5,3.2-27.7,1c-9.7-2.4-19.7-4.3-29.4-6.2l-2.9-0.6
				c-6.4-1.2-12.2,1-16.2,6.2c-6.4,8.1-13.6,17.3-19.6,27c-9,14.6-18.9,26.5-30.4,36.3c-4.5,3.9-8.7,8.2-12.8,12.5
				c-1.7,1.8-3.4,3.6-5.2,5.3c-3.9,3.9-6.3,8.8-7.1,14.1c-1.9,12.2-3.4,24.3-4.6,36.2c-1.3,12.4-3.9,24.7-7.8,36.3
				c-3,9.1-7.3,17.8-11.4,26.2c-1.1,2.3-2.3,4.6-3.4,6.9c-4.2,8.9-4.1,15.4,0.3,21.1c3.8,4.9,8.9,9.1,15.9,13
				c13.9,7.7,29.2,12,42.4,15.4c0.8,0.2,1.6,0.4,2.5,0.5c2.8,0.6,5.7,1.2,8,3.4c0.2,0.2,0.2,0.6,0,0.8s-0.6,0.2-0.8,0
				c-2.1-2-4.8-2.5-7.5-3.1c-0.8-0.2-1.7-0.3-2.5-0.6c-13.3-3.4-28.6-7.8-42.7-15.5c-7.2-4-12.3-8.2-16.2-13.3
				c-6.1-8-3.2-16.5-0.4-22.3c1.1-2.3,2.2-4.6,3.4-7c4.1-8.4,8.3-17,11.4-26c3.9-11.6,6.5-23.7,7.7-36.1c1.2-11.9,2.7-24,4.6-36.2
				c0.9-5.6,3.4-10.7,7.4-14.7c1.7-1.8,3.5-3.5,5.2-5.3c4.1-4.2,8.3-8.6,12.8-12.5c11.4-9.8,21.2-21.6,30.2-36.1
				c6-9.7,13.3-19,19.7-27.1c4.3-5.5,10.5-7.9,17.3-6.6l2.9,0.6c9.7,1.9,19.7,3.8,29.4,6.2c8.9,2.2,18.1,1.9,27.1-0.9
				c9.7-3,19.1-7,27.7-10.8c12.9-5.7,26.6-6.6,40.4-2.7c6.1,1.7,12.2,3.5,18.2,5.3c7.4,2.2,15.1,4.5,22.6,6.5
				c3.9,1,7.9,1.7,11.8,2.4c2.9,0.5,6,1,8.9,1.6c7.1,1.6,14.3,3.3,21.2,5c4.3,1,8.6,2.1,12.9,3.1c1.9,0.5,3.9,1,5.8,1.5
				c4.7,1.3,9.6,2.6,14.5,2.9c10.3,0.7,19.1-3.4,25.5-11.9c5.5-7.3,9.6-15.6,13.7-24.1c7.1-15,15.4-25.2,26.2-32.2
				c5.8-3.8,11.7-5.6,17.9-5.4c1,0,1.9-0.1,3-0.2c0.5-0.1,1-0.1,1.6-0.1c13.5-0.9,22.6,6.8,29.7,14.5c3.4,3.7,6.7,7.8,9.8,11.7
				c5.7,7.1,11.6,14.5,18.9,20.2c10.7,8.3,21.8,10.5,33.1,6.5c8.7-3.1,17.1-8.6,26.2-17.3c10-9.5,19.2-20.5,27.4-32.6
				c4.2-6.1,6.9-13.4,8.2-21.6c1-6.3-1.8-12.3-4.4-16.8c-4.6-8.2-11.9-14.9-21.6-20.1c-9.2-4.9-19.2-9.5-30.5-14.1
				c-24.4-9.9-42.6-25.3-55.5-47l-1.5-2.5c-6.7-11.2-13.6-22.9-22.3-32.9c-9.3-10.7-19.5-15.9-31.2-15.9c-0.2,0-0.4,0-0.6,0
				c-6.9,0.1-13.5,2.4-20.2,4.9c-5.7,2.1-11.4,4.4-17,6.6c-9,3.6-18.4,7.3-27.8,10.5c-9,3.1-18.4,5.7-27.5,8.2
				c-4.9,1.4-10,2.8-15,4.3c-13.5,4-26.4,10-38.5,17.8c-14,9-28.1,17-41.9,23.5c-11.6,5.5-23.6,10.6-35.2,15.5l-1.7,0.7
				c-10.2,4.3-20.2,10-30.5,17.5c-11,7.9-25.6,18.3-40.8,28.1c-9.1,5.9-18.9,10-28.9,12.4c-9.5,2.2-18.8,2.9-27.6,1.9
				c-3.4-0.4-6.8-0.8-10.2-1.2c-9.7-1.1-19.6-2.3-29.5-2.9c-19.1-1.2-35.5,3.5-48.8,13.9c-10.1,7.9-16.9,18.8-20.2,32.3
				c-3.2,13-1.2,26.1,1,37.4C77.4,688,79,699,80,709c1.4,14-2.3,27.6-11.2,41.5c-1.3,2-2.6,4-3.9,6c-5.4,8.3-11,16.9-16.1,25.6
				c-7.1,12-11.3,24.7-12.6,37.7c-0.8,8.4,1,17,5.6,26.4c5.3,10.9,12.7,20.6,19.9,30.1l1.4,1.8c2,2.6,3.8,5.5,5.7,8.8
				c2.1,3.8,1.9,8.2,1.4,12.2c-0.8,6-1.8,12.1-2.7,18c-0.5,2.8-0.9,5.6-1.4,8.4c-0.1,0.5-0.1,1,0,1.6c0,0.3,0,0.5,0,0.8
				C66.1,928.3,65.8,928.5,65.5,928.5z"/>
		</g>
		<g>
			<path class="st1" d="M442.1,653.5c-3.4,0-7-0.3-11.1-0.8c-6.4-0.9-12.9-2.1-19.2-3.2c-1.7-0.3-3.4-0.6-5.1-0.9
				c-13-2.4-23.2-5.5-32.1-9.8c-5.4-2.6-10.8-5.3-16-7.9c-16.7-8.3-34-17-51.8-23.7c-3.5-1.3-5.9-3.4-7-6.2
				c-1.1-2.7-0.8-5.9,0.8-9.3c3.7-7.8,9-14.9,15.5-21.3c11.2-11,24.7-19.2,37.7-27.2l1.5-0.9c6.8-4.2,13.8-8.2,20.6-12.1
				c4.8-2.7,9.7-5.5,14.5-8.4c17.3-10.3,33.1-18.3,48.3-24.5c13.3-5.5,27-10.4,40.2-15.2l2.7-1c9.4-3.4,20.6-7.4,32-10.8
				c3.5-1,7.3-1.5,11-1.9c1.7-0.2,3.5-0.4,5.2-0.7c0.1,0,0.1,0,0.2,0c0.3,0.1,0.6,0.2,0.9,0.2c0.6,0.2,1.2,0.4,1.8,0.4
				c9.8,1.3,18,5.2,24.9,12.1c7.7,7.6,12.9,17,17.2,25.2c3.4,6.5,6.7,13.1,9.9,19.6c2.3,4.6,4.7,9.4,7.1,14.1
				c4.3,8.5,10.6,14.2,18.7,16.9c7.9,2.7,15,5,21.8,7c9,2.7,19.5,6.4,28.6,13.1c8.6,6.3,11.8,16.7,8.3,27
				c-4.8,14.2-14.6,23.5-29.2,27.6c-2.9,0.8-6.6,0.8-10,0c-7.7-1.8-14.1-6.4-19-13.8c-1.8-2.7-3.6-5.5-5.3-8.3
				c-3.6-5.6-7.3-11.4-11.3-17c-2.7-3.8-6.2-7.5-10.1-10.8c-3.7-3-8-4.4-14-4.4c-2.6,0-5.3,0.2-7.9,0.5l-1.6,0.1
				c-9.4,0.8-18.2,4.1-25.5,7.2c-14.6,6.1-25.4,13.1-33.7,21.9c-5.7,6-10.8,12.6-15.7,19.1c-1.5,1.9-2.9,3.8-4.4,5.7l-0.1,0.1
				c-4.7,6.1-9.6,12.4-16.6,16.5C458.2,651.6,450.8,653.5,442.1,653.5z M529.7,468.6c-1.7,0.3-3.4,0.5-5.1,0.7
				c-3.7,0.4-7.5,0.9-10.9,1.9c-11.4,3.4-22.6,7.4-32,10.8l-2.7,1c-13.2,4.8-26.9,9.8-40.2,15.2c-15.1,6.2-30.9,14.2-48.1,24.5
				c-4.8,2.8-9.7,5.7-14.5,8.4c-6.8,3.9-13.8,7.9-20.6,12.1l-1.5,0.9c-12.9,8-26.3,16.2-37.5,27.1c-6.4,6.3-11.6,13.3-15.3,21
				c-1.5,3.1-1.8,6-0.8,8.4c1,2.5,3.2,4.4,6.4,5.6c17.9,6.7,35.1,15.3,51.9,23.7c5.2,2.6,10.7,5.3,16,7.9c8.9,4.3,19,7.4,31.9,9.8
				c1.7,0.3,3.4,0.6,5.1,0.9c6.3,1.2,12.7,2.4,19.1,3.2c4.1,0.6,7.6,0.8,11,0.8c8.5,0,15.7-1.8,22.1-5.6c6.8-4,11.4-10,16.3-16.3
				l0.1-0.1c1.5-1.9,2.9-3.8,4.4-5.7c5-6.5,10.1-13.2,15.8-19.2c8.5-8.9,19.3-16,34.1-22.2c7.4-3.1,16.3-6.4,25.9-7.2l1.6-0.1
				c2.6-0.2,5.3-0.5,8-0.5c6.3,0,10.8,1.4,14.7,4.7c4,3.3,7.5,7.1,10.3,11c3.9,5.5,7.7,11.4,11.3,17c1.8,2.8,3.5,5.5,5.3,8.2
				c4.7,7.1,10.9,11.6,18.3,13.4c3.3,0.8,6.8,0.8,9.5,0c14.3-4.1,23.9-13.1,28.5-26.9c3.3-9.9,0.3-19.7-7.9-25.8
				c-9-6.6-19.4-10.3-28.3-12.9c-6.8-2-13.9-4.3-21.8-7c-8.3-2.8-14.8-8.7-19.3-17.5c-2.4-4.7-4.8-9.5-7.1-14.1
				c-3.2-6.4-6.5-13.1-9.9-19.6c-4.3-8.1-9.4-17.4-17-24.9c-6.8-6.7-14.7-10.5-24.3-11.8c-0.7-0.1-1.4-0.3-2-0.5
				C530.2,468.7,530,468.6,529.7,468.6z"/>
		</g>
		<g>
			<path class="st1" d="M427.5,589.6L427.5,589.6c-2.8,0-5.5-0.8-8.1-2.4c-4.6-2.8-5.9-6.1-4.4-10.8c2.1-6.5,6.9-10.4,11.4-13.3
				c8.3-5.4,17.8-9.5,29-12.3l0.4-0.1c1.7-0.4,3.4-0.9,5.1-0.9c2.6,0,4.6,1.1,6.3,3.3c0.1,0.2,0.1,0.4,0,0.6l-1.5,2.7
				c-1.1,2-2.3,4-3.4,6c-5.6,10.3-13.5,18.3-23.5,23.7C434.5,588.5,431,589.6,427.5,589.6z M461,550.9c-1.6,0-3.2,0.4-4.9,0.8
				l-0.4,0.1c-11.1,2.8-20.5,6.8-28.7,12.2c-4.3,2.8-9,6.6-11,12.8c-1.4,4.3-0.3,7,3.9,9.6c2.4,1.5,4.9,2.2,7.5,2.2l0,0
				c3.2,0,6.6-1,10.9-3.4c9.7-5.3,17.5-13.1,23-23.2c1.1-2,2.2-4,3.4-6.1l1.4-2.4C464.8,551.7,463.2,550.9,461,550.9z"/>
		</g>
		<g>
			<path class="st1" d="M432.2,640.3L432.2,640.3c-3.8,0-7.5-0.1-11.1-0.3c-15.1-0.9-30-5.1-44.1-12.4c-7.1-3.7-14.3-8.2-23.6-14.8
				c-7.4-5.2-12.9-11.4-16.3-18.4c-2.2-4.4-2.7-8.1-1.6-12c1.6-5.9,4.5-11.2,9.1-16.3c7-7.9,15.7-13.9,24.7-19.8
				c19.1-12.5,42.1-26.8,67.6-38c16.6-7.3,32.8-14,48.2-20l0.8-0.3c9.8-3.8,20-7.8,30.9-8.6c2.3-0.2,4.7-0.5,7.1-0.8
				c0.8-0.1,1.6-0.2,2.4-0.3c0.1,0,0.1,0,0.2,0c0.9,0.1,1.8,0.3,2.7,0.4c1.9,0.3,3.9,0.5,5.8,1.1c12.7,3.6,21.9,12.2,28.9,26.9
				c3.2,6.7,5.3,13.6,7.4,21.9c2.4,9.2-0.9,22.5-9.5,27.6c-12.2,7.3-23.3,13.5-33.8,19c-17.6,9.2-31.7,20.3-43.1,34
				c-4.9,6-10.7,12.8-17,19c-7.6,7.4-15.4,11.3-23.8,11.8C440,640.2,436,640.3,432.2,640.3z M526.2,479.4c-0.7,0.1-1.5,0.2-2.3,0.3
				c-2.4,0.3-4.9,0.6-7.1,0.8c-10.8,0.8-20.9,4.7-30.6,8.5l-0.8,0.3c-15.4,6-31.6,12.7-48.1,20c-25.4,11.1-48.3,25.4-67.4,37.9
				c-9,5.9-17.6,11.8-24.5,19.6c-4.4,5-7.3,10.2-8.8,15.9c-1,3.6-0.5,7.1,1.6,11.2c3.4,6.8,8.8,12.9,16,18
				c9.2,6.5,16.5,11.1,23.5,14.7c14,7.2,28.7,11.4,43.6,12.3c3.5,0.2,7.2,0.3,11,0.3l0,0c3.8,0,7.7-0.1,11.8-0.3
				c8.2-0.5,15.7-4.2,23.1-11.4c6.2-6.1,12-12.9,16.9-18.9c11.4-13.8,25.6-25,43.4-34.3c10.5-5.4,21.5-11.6,33.7-19
				c8.1-4.9,11.2-17.6,9-26.4c-2.1-8.2-4.2-15.1-7.3-21.7c-6.9-14.5-15.8-22.8-28.2-26.3c-1.8-0.5-3.8-0.8-5.7-1
				C528,479.7,527.1,479.6,526.2,479.4z"/>
		</g>
		<g>
			<path class="st1" d="M115,726.4c-8.8,0-12.9-7.2-14.4-10.8c-4.2-10.1-9.4-23.6-12.8-37.7c-2.7-11.3-5.5-23.1-2.4-35.4
				c4.5-18.2,15.2-29.8,31.7-34.4c3.5-1,7.3-1.4,10.9-1.9c1.6-0.2,3.3-0.4,5-0.7c0.1,0,0.2,0,0.3,0s0.2,0,0.2,0
				c0.4,0,0.8,0.1,1.2,0.1c0.9,0.1,1.8,0.1,2.6,0.3c16,2.1,28.3,6.6,38.6,14.1c10.2,7.5,12.7,15.9,8.2,28.1c-2.2,6-4.6,12.1-6.8,18
				c-0.8,2-1.5,3.9-2.3,5.9c-5.1,13.2-11.5,23.9-19.5,32.5c-8.5,9.1-19.6,15.9-33.9,20.7C119.2,726,117,726.4,115,726.4z
				 M133.2,606.6C133.2,606.6,133.1,606.6,133.2,606.6c-1.8,0.3-3.5,0.5-5.1,0.7c-3.6,0.4-7.3,0.9-10.7,1.9
				c-16.3,4.5-26.4,15.5-30.9,33.6c-3,12.1-0.3,23.7,2.4,34.9c3.3,14,8.5,27.4,12.7,37.5c2.1,5.1,7.5,13.1,19.7,9
				c14.1-4.8,25-11.4,33.4-20.4c7.9-8.5,14.2-19,19.3-32.1c0.8-2,1.5-3.9,2.3-5.9c2.3-5.9,4.6-12,6.8-18c4.3-11.6,1.9-19.6-7.9-26.8
				c-10.1-7.4-22.2-11.8-38.1-13.9c-0.9-0.1-1.7-0.2-2.6-0.3c-0.4,0-0.8-0.1-1.3-0.1C133.3,606.6,133.2,606.6,133.2,606.6z"/>
		</g>
		<g>
			<path class="st1" d="M427.5,627.4L427.5,627.4c-1.2,0-2.4-0.1-3.6-0.2c-6.8-0.7-14.2-2.2-23.3-4.8c-15.8-4.6-27.3-12.1-35.1-23
				c-3.9-5.5-5.6-10.9-5.1-16.5c0.7-8.5,5.1-15.9,13.7-23.1c13-11,28.2-20.9,46.4-30.4c6.6-3.4,13.4-6.7,20-9.9
				c3.9-1.9,7.7-3.7,11.6-5.6c11.9-5.9,24.3-10.9,38-15.5c9.1-3,18.8-6.1,28.6-7c0,0,0.1,0,0.2,0c0.4,0.1,0.8,0.2,1.3,0.2
				c0.9,0.2,1.7,0.3,2.6,0.5c11.8,1.7,19.9,6.8,24.6,15.4c3.9,7.2,5.6,13.6,4.9,19.6c-1,9.3-5.3,17.1-12.4,22.8
				c-6.6,5.2-13.8,10.7-21.5,15.5c-16.5,10.1-30.5,21.6-42.7,35.1c-8,8.8-16.9,17.9-29,22.7C439.7,626,433.4,627.4,427.5,627.4z
				 M518.8,492.4c-9.6,1-19.2,4-28.3,7c-13.7,4.5-26.1,9.6-37.9,15.4c-3.9,1.9-7.7,3.8-11.6,5.6c-6.6,3.2-13.4,6.5-20,9.9
				c-18.1,9.4-33.2,19.3-46.2,30.2c-8.4,7-12.6,14.1-13.3,22.3c-0.5,5.4,1.1,10.4,4.9,15.8c7.6,10.6,18.9,18,34.5,22.6
				c9,2.6,16.3,4.2,23.1,4.8c6.8,0.6,14-0.6,22.2-3.9c11.9-4.8,20.6-13.7,28.5-22.4c12.3-13.6,26.4-25.1,43-35.3
				c7.7-4.7,14.8-10.2,21.4-15.4c6.9-5.5,11-13.1,12-22.1c0.6-5.8-0.9-12-4.8-19c-4.6-8.3-12.3-13.2-23.8-14.9
				c-0.9-0.1-1.8-0.3-2.6-0.5C519.6,492.6,519.2,492.5,518.8,492.4z"/>
		</g>
		<g>
			<path class="st1" d="M637.9,602.1c-3.2,0-5.4-0.9-6.7-2.5s-1.5-3.9-0.7-6.8c0-0.2,0.1-0.3,0.3-0.4l3.1-1.5c0.1-0.1,0.3-0.1,0.4,0
				c0.1,0,0.1,0,0.2,0c3.4,0,5.9,1.9,7.1,5.3c1,2.9-1.3,4.4-3.1,5.7l-0.3,0.2C638.2,602,638.1,602.1,637.9,602.1z M631.5,593.2
				c-0.6,2.4-0.4,4.3,0.6,5.6c1.1,1.4,3,2.1,5.7,2.1l0.1-0.1c2-1.4,3.3-2.5,2.7-4.4c-0.7-2.1-2.3-4.5-6.1-4.6c-0.1,0-0.1,0-0.2,0
				L631.5,593.2z"/>
		</g>
	</g>
	<g>
		<g>
			<path class="st1" d="M-115.1,928.3c-0.3,0-0.5-0.1-0.7-0.3c-0.8-0.8-1.7-1.7-2.6-2.5c-1.9-1.8-3.8-3.7-5.5-5.7
				c-9.5-11.3-10.9-20.6-4.6-31.3c3-5.1,6.5-10,9.8-14.8l1.1-1.5c2.8-3.9,5.7-7.9,8.4-11.7c3.6-4.9,7.3-10,10.8-15.1
				c2.4-3.5,4.8-7.2,7.1-10.7c2.8-4.4,5.7-8.9,8.8-13.1c5-6.9,10.3-13.7,15.4-20.2c1.5-2,3.1-3.9,4.6-5.9c1.9-2.5,3.8-4.9,5.7-7.4
				c6-7.8,12.2-15.8,18.6-23.5c4.4-5.4,9.1-10.7,13.6-15.8c4.3-4.9,8.8-10.1,13-15.2c5.7-6.9,9.4-14.9,11.1-23.7
				c1.3-7,0.9-14.5-1.1-23.1c-2.1-9-4.4-17.9-6.7-27c-2.1-8.4-4.1-19.4-0.9-30.4c3-9.9,6.7-19.3,10.9-27.9
				c5-10.1,10.8-20.1,16.3-29.8c1.3-2.3,2.6-4.6,4-6.9c8.8-15.3,18.6-27.2,30.1-36.1c14.4-11.2,28.6-21.8,45.1-28.8
				c12.6-5.3,25.8-7.1,39.2-5.4c11.8,1.5,22.6,2.3,33.1,2.3c0.1,0,0.1,0,0.2,0c7.5,0,14-1.6,19.9-4.8c9-4.9,15.7-12.5,22.2-19.8
				c0.9-1.1,1.9-2.1,2.8-3.2c5.4-6.1,10.9-11.9,16.2-17.2c8.3-8.5,18-15,28.9-22c16.1-10.4,30.8-22.7,43.8-36.6
				c11.3-12.1,20.4-24.9,28-39.2c0.6-1.2,1.2-2.3,1.9-3.5c4.8-9.1,9.8-18.6,16.4-26.9c10.5-13.1,26-18.4,41.5-14.2
				c7.6,2.1,15.2,4.7,22.5,7.3c3.7,1.3,7.5,2.6,11.3,3.9l0.2,0.1c3.5,1.1,7,2.3,10.6,3c7.7,1.6,13.5-1.6,18.9-10.4
				c4-6.5,7.9-13.6,11.9-21.7c4.9-9.9,12.7-15.8,23-17.6c8.4-1.4,17-2,25.4-2.6c1.5-0.1,3-0.2,4.5-0.3c5.9-0.4,11.8-0.7,17.6-1
				c3.5-0.2,7-0.3,10.5-0.5c2.5-0.1,5-0.4,7.4-0.6c5-0.5,10.1-0.9,15.2-0.6c8.8,0.5,18.5,2.9,23.4,16.3c1.9,5.3,3.6,10.5,4.9,15.5
				c2.5,9.1,5.8,21.1,8.8,33.4c2.5,10.2,5,20.6,7.4,30.7c1.3,5.5,2.6,10.9,3.9,16.4c0.9,3.6,1.7,7.3,2.6,10.9
				c2.3,9.8,4.7,19.9,7.3,29.8c2.5,9.6,6.1,17.8,11,25c9.5,14,23,23,33.8,29.2c19.9,11.5,42.4,24.6,63,40.1
				c11.7,8.8,23.7,18.9,31.8,33.1c7.9,13.8,11.4,28.2,10.4,43c-0.9,14-5.6,27.1-14.1,39.1c-5.6,7.9-12,15.5-18.2,22.7
				c-1.9,2.2-3.7,4.4-5.6,6.6c-11.2,13.3-17.8,25.7-20.9,39c-2,8.4-4.3,18.2-7.1,27.8c-2.9,9.7-9.3,15.7-18.6,17.5
				c-6.9,1.3-14,1.6-20.2,1.8c-6.4,0.2-12.8,0.3-19.1,0.3c-4,0-8.1,0.1-12.2,0.1c-4,0.1-7.6,0.3-10.8,0.7c-8.4,1-17,2.2-25.6,3.5
				c-5.5,0.8-11.2,1.9-16.1,5.4c-5,3.6-9.5,7.3-10.9,13.8c-1.7,8-0.9,16.1-0.3,23.3c0.3,3,0.8,6.1,1.2,9c1,6.5,2.1,13.2,1.2,20
				c-1.3,10.2-5.9,17-14.2,20.9c-13,6-26.3,4.3-36.5,2.1c-14.2-3.1-28.7-9-44.6-18c-4.1-2.3-8.2-4.8-12.2-7.1
				c-10.1-6-20.5-12.1-31.3-17.1c-9.5-4.4-20-7-31-7.8c-9.8-0.7-19.7,0.9-29.3,2.4c-1.3,0.2-2.6,0.4-3.9,0.6
				c-12.4,2-24.9,3.9-37.1,5.7c-5.3,0.8-10.6,1.6-16,2.4c-8.1,1.2-16.4,2.5-24.4,6.1c-15,6.9-24.9,19.6-34.4,32l-0.2,0.3
				c-5.3,7-5.9,14.7-1.5,21.9c4.3,7.1,11,12.5,20,16.3c8.8,3.7,17.9,7,26.7,10.3c5.4,2,11,4,16.4,6.1c9.3,3.6,18.7,7.5,27.8,11.3
				l3.2,1.3c5.2,2.2,10.6,4.4,15.9,7.1c2.8,1.4,5.4,3.1,7.9,4.8c1.1,0.7,2.3,1.5,3.4,2.2c0.5,0.3,0.6,0.9,0.3,1.4
				c-0.3,0.5-0.9,0.6-1.4,0.3c-1.2-0.7-2.3-1.5-3.5-2.2c-2.5-1.6-5.1-3.3-7.7-4.7c-5.2-2.6-10.5-4.9-15.7-7l-3.2-1.3
				c-9.1-3.8-18.4-7.7-27.7-11.3c-5.4-2.1-11-4.1-16.4-6.1c-8.8-3.2-18-6.6-26.8-10.3c-9.3-3.9-16.3-9.7-20.9-17.1
				c-4.8-7.8-4.2-16.6,1.6-24.2l0.2-0.3c9.6-12.6,19.6-25.6,35.1-32.6c8.2-3.7,16.7-5,24.9-6.3c5.3-0.8,10.6-1.6,16-2.4
				c12.2-1.8,24.7-3.7,37.1-5.7c1.3-0.2,2.6-0.4,3.9-0.6c9.7-1.6,19.7-3.2,29.7-2.4c11.2,0.9,21.9,3.5,31.7,8
				c10.9,5,21.4,11.2,31.5,17.2c4,2.4,8.1,4.8,12.1,7.1c15.6,8.9,30,14.8,44,17.8c9.9,2.1,22.8,3.9,35.2-1.9
				c7.7-3.6,11.9-9.7,13.1-19.3c0.8-6.5-0.2-13.1-1.2-19.4c-0.5-3-0.9-6.1-1.2-9.2c-0.7-7.3-1.5-15.6,0.3-23.9
				c1.5-7.2,6.6-11.4,11.7-15c5.2-3.8,11.3-4.9,17-5.8c8.7-1.3,17.3-2.5,25.7-3.5c3.3-0.4,6.9-0.6,11-0.7c4.1-0.1,8.2-0.1,12.2-0.1
				c6.2,0,12.7-0.1,19-0.3c6.1-0.2,13.1-0.5,19.9-1.8c8.6-1.6,14.5-7.1,17.1-16.1c2.8-9.5,5.1-19.3,7.1-27.7
				c3.1-13.6,9.9-26.2,21.3-39.8c1.9-2.2,3.7-4.4,5.6-6.6c6.2-7.2,12.6-14.7,18.1-22.6c8.2-11.6,12.8-24.4,13.7-38
				c0.9-14.4-2.5-28.5-10.2-41.9c-7.9-13.8-19.7-23.8-31.3-32.5c-20.5-15.4-43-28.4-62.8-40c-10.9-6.3-24.7-15.5-34.4-29.8
				c-5-7.3-8.8-15.9-11.3-25.6c-2.6-9.9-5-20.1-7.3-29.9c-0.9-3.6-1.7-7.3-2.6-10.9c-1.3-5.5-2.6-10.9-3.9-16.4
				c-2.4-10.1-4.9-20.5-7.4-30.7c-3-12.3-6.3-24.3-8.8-33.4c-1.4-5-3-10.2-4.9-15.4c-4.4-12.3-13-14.5-21.6-15
				c-4.9-0.3-10,0.2-14.9,0.6c-2.5,0.2-5,0.5-7.5,0.6c-3.5,0.2-7,0.4-10.5,0.5c-5.8,0.3-11.7,0.5-17.6,1c-1.5,0.1-3,0.2-4.5,0.3
				c-8.3,0.6-16.9,1.2-25.2,2.6c-9.6,1.6-16.9,7.2-21.5,16.5c-4.1,8.2-8,15.3-12,21.8c-3.7,6-9.8,13.7-21,11.3
				c-3.7-0.8-7.3-2-10.8-3.1l-0.2-0.1c-3.8-1.2-7.6-2.6-11.3-3.9c-7.3-2.5-14.8-5.2-22.4-7.2c-14.9-4-29.2,0.9-39.4,13.6
				c-6.5,8.2-11.5,17.5-16.2,26.6c-0.6,1.2-1.2,2.3-1.9,3.5c-7.6,14.4-16.9,27.4-28.3,39.6c-13.1,14.1-28,26.5-44.2,37
				c-10.8,7-20.4,13.4-28.6,21.7c-5.3,5.4-10.7,11.1-16.1,17.2c-0.9,1-1.9,2.1-2.8,3.2c-6.6,7.5-13.5,15.2-22.8,20.2
				c-6.2,3.4-13.1,5-20.9,5c-10.6,0-21.6-0.7-33.5-2.3c-13-1.7-25.9,0.1-38.2,5.2c-16.3,6.9-30.4,17.4-44.7,28.5
				c-11.3,8.8-21,20.4-29.6,35.5c-1.3,2.3-2.6,4.6-4,6.9C13.8,582.2,8,592.2,3,602.3c-4.2,8.5-7.9,17.8-10.8,27.6
				c-3.1,10.4-1.2,21.1,0.9,29.3c2.3,9.1,4.6,18.1,6.7,27.1c2.1,8.9,2.4,16.7,1.1,24c-1.7,9.2-5.6,17.5-11.5,24.7
				c-4.3,5.2-8.8,10.3-13.1,15.2c-4.5,5.1-9.1,10.4-13.5,15.8c-6.3,7.7-12.6,15.7-18.6,23.5c-1.9,2.5-3.8,4.9-5.7,7.4
				c-1.5,2-3.1,3.9-4.6,5.9c-5.1,6.5-10.4,13.3-15.4,20.2c-3.1,4.2-6,8.7-8.8,13.1c-2.3,3.5-4.7,7.2-7.1,10.8
				c-3.5,5.1-7.3,10.2-10.9,15.1c-2.8,3.8-5.6,7.7-8.4,11.6l-1.1,1.5c-3.3,4.7-6.8,9.6-9.7,14.6c-5.8,10-4.5,18.4,4.4,29
				c1.6,2,3.6,3.8,5.4,5.5c0.9,0.8,1.7,1.7,2.6,2.5c0.4,0.4,0.4,1,0,1.4C-114.6,928.2-114.8,928.3-115.1,928.3z"/>
		</g>
		<g>
			<path class="st1" d="M17,929c-0.5,0-0.9-0.3-1-0.8c0-0.3-0.1-0.5-0.1-0.8c0-0.4-0.1-0.8-0.2-1l-0.7-1.1c-1.9-3.1-3.9-6.4-6-9.4
				c-6.9-10-16.6-17.1-28.6-21c-5.4-1.8-11.4-3.6-18.9-5.6c-7.2-2-14-9.9-12.4-19.1c1.9-10.6,5.2-19.7,10-27.8
				c3.5-5.8,6.9-11.7,10.3-17.4c6.5-11.2,13.3-22.7,20.4-33.8c6.6-10.2,13.9-20.3,20.8-30.1c4.1-5.7,8.3-11.6,12.4-17.5
				c4.3-6.3,7.7-13.5,10.4-22.2c2-6.7,2.1-13.8,1.8-20.4c-0.4-10.6-1.9-20.1-4.4-29c-2-6.8-3.4-14.1-4.3-21.6
				c-1.3-10.9,0.7-22,6-34.2c9.1-20.9,20.8-37.6,35.7-51c18.5-16.7,40.8-25.3,66-25.5c4,0,8.1,0.1,12,0.1c4.7,0.1,9.5,0.2,14.3,0.1
				h1.3c9.3-0.2,18.8-0.4,28.1-1.4c14-1.6,26.2-7.5,36.3-17.6c5.1-5.1,10-10.4,14.8-15.6c2.1-2.3,4.2-4.5,6.3-6.8
				c6.1-6.6,12.6-11.6,19.9-15.4c7-3.7,14.5-5.8,21.7-7.8c3.1-0.9,6.3-1.7,9.4-2.7c2.1-0.7,4.3-1.3,6.5-2c5.9-1.8,12-3.7,17.7-6.1
				c16.8-7.4,30.6-20.3,42.1-39.6c3.5-5.9,7-11.9,10.4-17.8c2.4-4.2,4.8-8.3,7.2-12.4c2-3.4,5.4-5.9,9.4-6.9c3.9-1,7.9-0.4,11.2,1.7
				c4.7,2.9,9.1,6.1,13.1,9.2c2.3,1.7,4.5,3.5,6.6,5.3c3.3,2.7,6.7,5.5,10.3,7.9c11,7.4,23.7,9.1,37.7,5c9.3-2.7,17.5-9.1,24.9-19.4
				c6.9-9.5,10.5-20.7,13.9-31.5l1.2-3.9c2.5-7.7,5-15.6,10.1-22.4c5.8-7.7,16.6-12,24.6-9.8c2.7,0.8,5.5,2,8,3.6
				c7.6,4.9,11,12.7,14.1,20.8c2.2,5.7,4.3,11.4,6.5,17.2c4.2,11.1,8.5,22.6,12.9,33.8c2.6,6.6,5.5,13.2,8.3,19.5
				c2.5,5.7,5.1,11.6,7.4,17.4c7.9,19.6,17.6,34,30.3,45.3c8.4,7.5,18.1,13,26.5,17.4c4,2.1,8.2,4,12.2,5.9c2.8,1.3,5.7,2.6,8.5,4
				c11.3,5.5,22.3,11.9,32.8,19c8.7,5.9,19.6,14.2,27,26.3c4.7,7.8,7.4,15.3,8.1,22.9c1,11.2-1.7,22.5-8.1,33.6
				c-5.2,9-12,16.9-18.6,24.6c-1.8,2.1-3.7,4.3-5.5,6.4c-1.2,1.5-2.4,2.9-3.7,4.4c-7.6,9.1-15.6,18.5-22.3,28.6l-0.3,0.5
				c-4.5,6.8-9.2,13.9-16.1,19.1c-13.1,9.9-28.7,12.8-42.3,14.4c-14.8,1.7-29.6-0.6-44.1-6.8c-6.8-2.9-14-5.8-22.1-8.8
				c-8-2.9-14.8-1.5-20.8,4.3c-7.8,7.5-11.8,17.4-14.7,26c-2.9,8.5-5.3,17.4-7.6,26c-0.8,2.8-1.5,5.6-2.3,8.4
				c-1.4,4.9-4.1,8.6-7.8,10.7c-3.5,1.9-7.7,2.2-12.1,0.9c-8.1-2.5-16.2-6.3-26.3-12.3l-2.1-1.3c-9.7-5.8-19.7-11.9-29.9-17.3
				c-7.9-4.2-15.8-8.2-24.3-10.6c-8.6-2.4-17.2-2.8-26.8-3c-4.1-0.1-8.2,0.2-12.2,0.4c-4.2,0.3-8.5,0.5-12.8,0.4
				c-11.9-0.3-23.7-1.2-35.2-2c-19-1.4-33.4-0.8-46.8,2.1l-0.9,0.2c-7.8,1.7-15.9,3.5-23.1,7.1c-11.9,6-21,15.7-28.8,30.4
				c-8.6,16.4-16.8,27.9-26.5,37.2c-2.3,2.2-4.7,4.4-7,6.6c-3.6,3.3-7.3,6.8-10.8,10.4c-2.9,2.9-5.2,6.5-6.9,9.3
				c-3.3,5.3-4.1,11.2-4.3,18.4c-0.2,7.4,1.7,13.3,5.8,18.7c4.4,5.6,9.6,10.3,15.7,14c8.9,5.4,18.5,10.7,28.7,15.8l0.8,0.4
				c8.9,4.4,18.1,9,27.6,12.1c8.4,2.7,17.3,4.7,25.8,6.7c3.7,0.8,7.5,1.7,11.3,2.6c3.3,0.8,6.6,1.6,9.9,2.4l4.5,1.1
				c0.5,0.1,0.9,0.7,0.7,1.2c-0.1,0.5-0.7,0.9-1.2,0.7l-4.5-1.1c-3.3-0.8-6.6-1.6-9.9-2.4c-3.7-0.9-7.5-1.8-11.2-2.6
				c-8.6-2-17.5-4-26-6.7c-9.6-3.1-18.9-7.7-27.8-12.2l-0.8-0.4c-10.2-5.1-19.9-10.4-28.9-15.9c-6.3-3.8-11.7-8.7-16.2-14.5
				s-6.5-12.2-6.3-20c0.2-7.5,1.1-13.7,4.6-19.4c1.7-2.9,4.1-6.6,7.2-9.6c3.5-3.6,7.3-7.1,10.9-10.4c2.3-2.1,4.7-4.3,7-6.5
				c9.5-9.2,17.6-20.5,26.1-36.7c8-15.1,17.4-25.1,29.7-31.3c7.5-3.8,15.7-5.6,23.6-7.3l0.9-0.2c13.6-3,28.2-3.6,47.4-2.2
				c11.4,0.9,23.3,1.8,35.1,2c4.2,0.1,8.5-0.2,12.6-0.4c4-0.2,8.2-0.5,12.4-0.4c9.8,0.2,18.5,0.5,27.3,3s16.7,6.5,24.7,10.8
				c10.2,5.4,20.2,11.5,30,17.3l2.1,1.3c9.9,5.9,17.8,9.7,25.8,12.1c3.8,1.2,7.5,0.9,10.5-0.7c3.3-1.8,5.6-5.1,6.9-9.5
				c0.8-2.8,1.5-5.6,2.3-8.4c2.3-8.6,4.8-17.5,7.7-26.1c3-8.9,7.1-19,15.2-26.8c6.5-6.3,14.2-7.9,22.9-4.7c8.1,3,15.4,5.9,22.2,8.8
				c14.1,6.1,28.6,8.3,43.1,6.7c13.3-1.5,28.7-4.4,41.3-14c6.5-5,11.1-11.9,15.6-18.6l0.3-0.5c6.8-10.2,14.7-19.6,22.4-28.8
				c1.2-1.5,2.4-2.9,3.7-4.4c1.8-2.2,3.7-4.3,5.5-6.4c6.5-7.6,13.3-15.4,18.4-24.3c6.3-10.9,8.8-21.5,7.8-32.4
				c-0.7-7.3-3.2-14.5-7.8-22.1c-7.2-11.8-17.9-19.9-26.4-25.7c-10.4-7-21.4-13.4-32.6-18.9c-2.8-1.4-5.7-2.7-8.4-4
				c-4.1-1.9-8.3-3.8-12.3-5.9c-8.5-4.4-18.4-10-27-17.6c-13-11.6-22.8-26.2-30.9-46.1c-2.4-5.8-4.9-11.7-7.4-17.4
				c-2.8-6.4-5.7-13-8.3-19.6c-4.5-11.2-8.8-22.7-12.9-33.8c-2.1-5.7-4.3-11.4-6.5-17.1c-3-7.8-6.3-15.2-13.3-19.8
				c-2.3-1.5-4.9-2.7-7.4-3.4c-7.3-2-17.2,1.9-22.5,9c-4.9,6.5-7.4,14.3-9.8,21.8l-1.2,3.9c-3.5,10.9-7.2,22.3-14.2,32
				c-7.7,10.7-16.2,17.3-26,20.2c-14.4,4.2-28,2.4-39.4-5.3c-3.6-2.5-7.1-5.3-10.4-8c-2.1-1.8-4.3-3.6-6.6-5.3
				c-4-3-8.3-6.2-12.9-9.1c-2.9-1.8-6.3-2.3-9.7-1.5c-3.5,0.9-6.5,3-8.2,6c-2.4,4.1-4.8,8.3-7.2,12.4c-3.4,5.8-6.9,11.9-10.4,17.8
				c-11.8,19.6-25.8,32.8-43,40.4c-5.8,2.5-11.9,4.4-17.9,6.2c-2.1,0.7-4.3,1.3-6.4,2c-3.1,1-6.4,1.9-9.5,2.8
				c-7.2,2-14.6,4-21.3,7.6c-7,3.7-13.4,8.6-19.4,15c-2.1,2.2-4.2,4.5-6.3,6.8c-4.8,5.2-9.8,10.6-14.9,15.7
				c-10.4,10.4-23,16.5-37.5,18.1c-9.4,1.1-19,1.3-28.3,1.4h-1.3c-4.8,0.1-9.7,0-14.4-0.1c-3.9-0.1-8-0.2-12-0.1
				c-24.8,0.2-46.5,8.6-64.7,25c-14.6,13.2-26.1,29.7-35.2,50.3c-5.2,11.8-7.1,22.7-5.9,33.2c0.9,7.4,2.3,14.5,4.2,21.3
				c2.6,9.1,4.1,18.7,4.5,29.4c0.3,6.8,0.2,14-1.9,21c-2.7,8.9-6.2,16.3-10.6,22.8c-4.1,5.9-8.3,11.8-12.4,17.5
				c-7,9.7-14.2,19.8-20.8,30c-7.1,11-13.9,22.6-20.4,33.7c-3.4,5.7-6.8,11.7-10.3,17.5c-4.7,7.8-7.9,16.7-9.8,27.1
				c-1.5,8.1,4.5,15.1,10.9,16.8c7.5,2.1,13.6,3.9,19,5.6c12.5,4.1,22.5,11.4,29.7,21.8c2.1,3.1,4.1,6.3,6,9.5l0.7,1.1
				c0.4,0.6,0.4,1.3,0.5,1.8c0,0.2,0,0.4,0.1,0.6c0.1,0.5-0.3,1.1-0.8,1.2C17.2,929,17.1,929,17,929z"/>
		</g>
		<g>
			<path class="st1" d="M453.2,669.5c-1.6,0-3.2-0.1-4.7-0.3c-7.8-1.1-15.6-2.7-23.1-4.2c-2.2-0.4-4.3-0.9-6.5-1.3l-2.2-0.4
				c-9.2-1.8-18.7-3.7-28-5.9c-11.3-2.6-22.2-7.1-32.7-11.4c-3.4-1.4-6.9-2.8-10.3-4.1c-14.4-5.6-26.5-6.4-38-2.7
				c-7.5,2.5-14.8,5.8-21.7,9c-13.1,6.2-24.3,7.3-35.2,3.5c-7.5-2.6-17.1-6.7-24.3-14.8c-5.5-6.2-6.4-12-2.9-17.9
				c2.9-4.8,5.8-8.5,9-11.1c7.3-6.1,15.1-11.9,22.5-17.4l4.1-3.1c2.3-1.7,4.6-3.4,6.9-5.2c10.1-7.6,20.6-15.5,31.1-22.9
				c11.3-8,23.8-14.4,35.8-20.6c6.1-3.1,12.3-6.3,18.4-9.7c4.5-2.5,9-5.1,13.6-7.7c8.2-4.7,16.7-9.5,25.1-14.1l2.3-1.2
				c8.6-4.7,17.5-9.6,26.7-13.5c6.8-2.9,13.9-5.3,20.7-7.6c3.7-1.2,7.5-2.5,11.2-3.9c7.4-2.7,14.9-5.5,22.2-8.1
				c6.3-2.3,12.6-4.6,18.9-6.9l1.6-0.6c10.1-3.7,20.6-7.5,31.6-9.5c7.6-1.4,15.1-0.4,23.7,3.1c8.4,3.4,15.5,9.7,21.9,19.3
				c6.9,10.5,13.7,21.3,20.3,31.7c1.7,2.7,3.4,5.3,5,8c8,12.6,19.3,21.7,34.6,27.8c11.8,4.7,23.1,9.7,33.4,14.8
				c8,4,16,8.8,20.4,17.2c1.6,3.1,2.7,6.5,3.7,9.7c0.4,1.5,0.9,3,1.4,4.4c0.1,0.2,0.1,0.3,0,0.5c0,0.1,0,0.3,0,0.4
				c-0.4,1.3-0.7,2.8-1,4.1c-0.7,3-1.4,6.2-2.7,9c-8.9,18.4-22.1,32.3-39,41.1c-3.4,1.8-7.8,3-12.9,3.6c-9.3,1.1-17.9-2.4-25-10.2
				c-6.1-6.7-11.9-13.8-17.5-20.7c-2.7-3.3-5.5-6.8-8.3-10.2c-6.5-7.7-13.6-12.3-21.2-13.5c-5.7-0.9-12.5-0.6-19.6,0.9
				c-15.9,3.4-29.4,12.4-40.1,26.9c-7.3,9.9-14,20.4-20.5,30.6l-0.6,0.9C475.5,665.2,463.6,669.5,453.2,669.5z M322.1,634.8
				c7.5,0,15.5,1.7,24.2,5.1c3.5,1.3,7,2.8,10.3,4.1c10.4,4.3,21.2,8.7,32.4,11.3c9.3,2.2,18.8,4.1,28,5.9l2.2,0.4
				c2.2,0.4,4.3,0.9,6.5,1.3c7.5,1.5,15.3,3.1,23,4.2c10.6,1.5,24.6-2.3,31-12.4l0.6-0.9c6.5-10.2,13.3-20.8,20.6-30.7
				c11-14.9,24.9-24.2,41.3-27.7c7.3-1.6,14.4-1.9,20.3-1c8.1,1.3,15.6,6,22.4,14.1c2.8,3.4,5.6,6.8,8.4,10.2
				c5.6,6.9,11.4,14,17.4,20.6c6.6,7.3,14.7,10.6,23.3,9.5c5-0.6,9.1-1.8,12.3-3.4c16.6-8.7,29.4-22.2,38.2-40.2
				c1.3-2.6,1.9-5.5,2.6-8.6c0.3-1.4,0.6-2.8,1-4.1c-0.5-1.4-1-2.9-1.4-4.3c-1-3.2-2-6.5-3.5-9.4c-4.1-7.9-11.8-12.5-19.5-16.4
				c-10.3-5.1-21.5-10.1-33.3-14.8c-15.7-6.2-27.4-15.6-35.6-28.6c-1.7-2.7-3.4-5.3-5-8c-6.6-10.4-13.4-21.2-20.3-31.7
				c-6.1-9.3-13-15.3-21-18.6c-8.3-3.3-15.5-4.3-22.6-3c-10.8,2-21.2,5.7-31.2,9.4l-1.6,0.6c-6.3,2.3-12.6,4.6-18.9,6.9
				c-7.3,2.7-14.8,5.5-22.2,8.1c-3.7,1.4-7.6,2.6-11.3,3.9c-6.8,2.3-13.9,4.7-20.6,7.5c-9.1,3.9-17.9,8.7-26.5,13.4l-2.3,1.2
				c-8.4,4.6-16.9,9.4-25.1,14.1c-4.5,2.6-9,5.1-13.6,7.7c-6.1,3.4-12.4,6.6-18.4,9.8c-12,6.2-24.4,12.5-35.6,20.5
				c-10.5,7.4-21,15.3-31.1,22.9c-2.3,1.7-4.6,3.4-6.9,5.2l-4.1,3.1c-7.5,5.6-15.2,11.3-22.5,17.4c-3,2.5-5.8,5.9-8.6,10.6
				c-3.1,5.1-2.2,10.1,2.6,15.6c6.8,7.7,16.1,11.7,23.4,14.2c10.4,3.6,21.1,2.5,33.7-3.4c6.9-3.3,14.3-6.6,21.9-9.1
				C311.9,635.6,316.9,634.8,322.1,634.8z"/>
		</g>
		<g>
			<path class="st1" d="M423.9,611.6L423.9,611.6c-12.6,0-25-5.2-34-14.4c-6.7-6.7-7.8-14.9-3.4-23.6c2.9-5.7,6.8-10.3,11.5-13.7
				c8.5-6.1,16.9-11.9,25-17.2c2.7-1.8,6.7-3.6,9.3-4.7c2-1,4.1-2,6.1-3.1c4.5-2.3,9.2-4.7,13.9-6.7c13.3-5.7,27-11.6,40.8-16.8
				c5.7-2.1,10.5-3.1,15.2-3.1c2.8,0,5.6,0.4,8.2,1.1c5.5,1.6,9.8,5.3,11.8,10.3c1.9,4.8,1.3,10.2-1.7,15.1c-5,8.3-12,14.1-20,20.3
				c-2.4,1.9-4.8,3.7-7.3,5.6c-5.5,4.2-11.2,8.5-16.5,13.1c-5.9,5.1-11.7,10.5-17.3,15.8c-3.3,3.1-6.8,6.3-10.2,9.4
				C446.6,607.3,435.6,611.6,423.9,611.6z M508.5,510.4c-4.4,0-9,1-14.5,3c-13.8,5.2-27.5,11.1-40.7,16.8c-4.7,2-9.3,4.4-13.8,6.6
				c-2.1,1-4.1,2.1-6.2,3.1c-2.6,1.1-6.4,2.9-9,4.6c-8.1,5.3-16.5,11.1-24.9,17.2c-4.5,3.2-8.2,7.6-10.9,13
				c-4.1,7.9-3.1,15.1,3,21.2c8.6,8.7,20.5,13.8,32.6,13.8c11.2,0,21.7-4.1,30.3-12c3.4-3.1,6.8-6.3,10.2-9.4
				c5.6-5.3,11.4-10.7,17.4-15.8c5.4-4.6,11.1-9,16.6-13.2c2.4-1.8,4.9-3.7,7.3-5.6c7.8-6.1,14.7-11.8,19.5-19.7
				c2.7-4.4,3.2-9.2,1.5-13.4c-1.7-4.4-5.5-7.7-10.5-9.1C513.7,510.7,511.1,510.4,508.5,510.4z"/>
		</g>
		<g>
			<path class="st1" d="M76.6,845.2c-4.9,0-9.7-2.4-13.8-6.9c-7.2-7.8-10.2-17.7-8.6-28.5c1.6-11,6.1-21.4,13.3-30.8
				c4.8-6.2,11.7-13.7,22.4-16.5c0.1,0,0.3,0,0.4,0s0.3,0,0.4,0c4.4,1.2,7.6,4.4,9.4,9.4c2.4,6.6,3.8,12.9,4.4,19.2
				c1.4,15-1,28-7.2,39.6c-4.1,7.7-10.1,12.4-17.6,14.1C78.7,845.1,77.7,845.2,76.6,845.2z M90.3,764.5c-8,2-14.3,6.7-21.3,15.7
				c-7,9.1-11.4,19.2-12.9,29.8c-1.5,10.2,1.3,19.5,8.1,26.8c2.6,2.9,8.1,7.5,15.1,6c6.9-1.5,12.4-5.9,16.2-13
				c6-11.3,8.3-23.9,7-38.5c-0.6-6.2-2-12.3-4.3-18.7C96.7,768.3,94.1,765.6,90.3,764.5z"/>
		</g>
		<g>
			<path class="st1" d="M125.7,694.1c-5.4,0-10.4-2.6-14.5-7.6c-7-8.7-10.4-19.3-10.1-31.5c0.2-8.6,3.7-16.2,10.5-22.5
				c2.9-2.7,6.5-3.8,9.9-4.8c1-0.3,2.1-0.6,3.1-1c0.2-0.1,0.3-0.1,0.5,0c0.1,0,0.1,0,0.2,0c0.5,0,0.9,0,1.4,0c1.1,0,2.2-0.1,3.3,0.1
				c10.2,1.1,17.1,5,21.6,12.3c4.6,7.5,5.8,15.5,3.5,24.3c-2.1,8.2-6.2,19.9-17.3,26.9C133.6,692.8,129.5,694.1,125.7,694.1z
				 M125.1,628.5c-1,0.4-2.1,0.7-3.1,1c-3.4,1-6.5,2-9.1,4.4c-6.4,6-9.7,12.9-9.8,21.1c-0.3,11.8,3,21.9,9.6,30.2
				c6.2,7.8,15,9,23.9,3.3c8.1-5.1,13.2-13.1,16.4-25.7c2.1-8.3,1.1-15.8-3.3-22.8c-4.2-6.8-10.5-10.4-20.1-11.4c-1-0.1-1.9-0.1-3,0
				C126.1,628.6,125.6,628.6,125.1,628.5C125.2,628.5,125.2,628.5,125.1,628.5z"/>
		</g>
	</g>
</g>
<g class="st2">
	<path class="st1" d="M632.3,315.1l-1.7,0.9c-0.4-0.5-1-0.8-2-0.8c-1.4,0-2.4,1-2.4,2.4c0,1.3,1,2.4,2.4,2.4c0.9,0,1.6-0.3,2-0.7
		v-0.8h-2.5V317h4.2v3c-0.1,0.1-1.3,1.8-3.7,1.8c-2.7,0-4.4-2-4.4-4.2c0-2.3,1.9-4.2,4.4-4.2C630.3,313.4,631.5,314.1,632.3,315.1z"
		/>
	<path class="st1" d="M639.5,320.4h-3.9l-0.5,1.3H633l3.5-8.2h2.2l3.5,8.2h-2.1L639.5,320.4z M638.8,318.8l-1.3-3l-1.3,3H638.8z"/>
	<path class="st1" d="M650.6,319.3c0,1.3-0.9,2.4-3.1,2.4h-4v-8.2h3.5c2.4,0,3.1,0.9,3.1,2.2c0,0.8-0.6,1.4-0.8,1.6
		C650.2,317.7,650.6,318.4,650.6,319.3z M648.3,316c0-0.6-0.4-0.8-1.1-0.8h-1.7v1.7h1.7C648,316.9,648.3,316.6,648.3,316z
		 M647.3,318.4h-1.8v1.6h1.8c0.8,0,1.2-0.3,1.2-0.8C648.5,318.6,648.1,318.4,647.3,318.4z"/>
	<path class="st1" d="M659.1,319.3c0,1.3-0.9,2.4-3.1,2.4h-4v-8.2h3.5c2.4,0,3.1,0.9,3.1,2.2c0,0.8-0.6,1.4-0.8,1.6
		C658.6,317.7,659.1,318.4,659.1,319.3z M656.7,316c0-0.6-0.4-0.8-1.1-0.8h-1.7v1.7h1.7C656.5,316.9,656.7,316.6,656.7,316z
		 M655.8,318.4h-1.8v1.6h1.8c0.8,0,1.2-0.3,1.2-0.8C657,318.6,656.5,318.4,655.8,318.4z"/>
	<path class="st1" d="M666.5,320.4h-3.9l-0.5,1.3H660l3.5-8.2h2.2l3.5,8.2h-2.1L666.5,320.4z M665.9,318.8l-1.3-3l-1.3,3H665.9z"/>
	<path class="st1" d="M677.3,316.6c0,1.2-0.6,2.2-1.5,2.6l1.7,2.5h-2.4l-1.2-2h-1.4v2h-2v-8.2h3.9
		C676.1,313.5,677.3,314.8,677.3,316.6z M672.5,315.3v2.5h1.7c0.7,0,1.2-0.6,1.2-1.2c0-0.7-0.5-1.2-1.2-1.2H672.5z"/>
	<path class="st1" d="M680.7,313.5l-0.3,3.1h-1.5l-0.3-3.1H680.7z"/>
	<path class="st1" d="M688.5,316.1h-2c0-0.4-0.5-1-1.3-1c-0.6,0-1.3,0.3-1.3,0.7c0,0.4,0.5,0.6,1.7,0.9c1.3,0.3,3.1,0.8,3.1,2.6
		c0,1.6-1.4,2.5-3.3,2.5c-2.6,0-3.6-1.7-3.6-3h2c0,0,0.2,1.3,1.8,1.3c0.9,0,1.2-0.4,1.2-0.7c0-0.5-0.7-0.7-1.4-0.9
		c-1.2-0.3-3.4-0.7-3.4-2.6c0-1.5,1.5-2.6,3.3-2.6C687.4,313.4,688.5,314.8,688.5,316.1z"/>
</g>
<g class="st2">
	<path class="st1" d="M636.7,336.1h-2v-3.2h-3.6v3.2h-2v-8.2h2v3.2h3.6v-3.2h2V336.1z"/>
	<path class="st1" d="M640.5,336.1h-2v-8.2h2V336.1z"/>
	<path class="st1" d="M650.2,332c0,2.4-1.8,4.1-4.3,4.1h-3.6v-8.1l3.6,0C648.6,327.9,650.2,329.6,650.2,332z M644.3,334.2h1.6
		c1.4,0,2.3-0.9,2.3-2.3c0-1.5-0.9-2.2-2.3-2.2h-1.6V334.2z"/>
	<path class="st1" d="M657.8,327.9v1.8h-4.3v1.4h3.6v1.7h-3.6v1.4h4.3v1.8h-6.2v-8.2H657.8z"/>
	<path class="st1" d="M667,332c0,2.3-1.9,4.2-4.2,4.2c-2.3,0-4.2-1.9-4.2-4.2c0-2.3,1.9-4.2,4.2-4.2C665.1,327.8,667,329.7,667,332z
		 M660.4,332c0,1.3,1.1,2.4,2.4,2.4c1.3,0,2.4-1.1,2.4-2.4c0-1.3-1.1-2.4-2.4-2.4C661.5,329.6,660.4,330.7,660.4,332z"/>
	<path class="st1" d="M675.8,331.9c0,2.7-1.7,4.3-4,4.3c-2.3,0-3.9-1.6-3.9-4.3v-4h2v4c0,1.6,0.7,2.5,1.9,2.5c1.2,0,2-0.9,2-2.5v-4
		h2V331.9z"/>
	<path class="st1" d="M684.5,329.7h-2.9v6.3h-2v-6.3h-2.9v-1.8h7.8V329.7z"/>
</g>
<g>
	<path class="st1" d="M652.1,304l3.4-3.4l-3.6-3.7l1.8-1.8l3.6,3.7l3.7-3.7l1.8,1.8l-3.8,3.7l3.4,3.4l-1.8,1.8l-3.4-3.4l-3.4,3.4
		L652.1,304z"/>
</g>
<g>
	<g>
		<path class="st1" d="M270.4,327l3.4-3.4l-3.6-3.7l1.8-1.8l3.6,3.7l3.7-3.7l1.8,1.8l-3.8,3.7l3.4,3.4l-1.8,1.8l-3.4-3.4l-3.4,3.4
			L270.4,327z"/>
	</g>
	<g class="st2">
		<path class="st1" d="M249.7,336.6c0,1.2-0.6,2.2-1.5,2.6l1.7,2.5h-2.4l-1.2-2h-1.4v2h-2v-8.2h3.9
			C248.4,333.5,249.7,334.8,249.7,336.6z M244.8,335.3v2.5h1.7c0.7,0,1.2-0.6,1.2-1.2c0-0.7-0.5-1.2-1.2-1.2H244.8z"/>
		<path class="st1" d="M257.4,340.4h-3.9l-0.5,1.3h-2.1l3.5-8.2h2.2l3.5,8.2h-2.1L257.4,340.4z M256.7,338.8l-1.3-3l-1.3,3H256.7z"
			/>
		<path class="st1" d="M271.4,341.7h-2v-4.2l-2,4.2h-2.2l-2-4.2v4.2h-2v-8.2h2.2l2.8,6l2.8-6h2.2V341.7z"/>
		<path class="st1" d="M280.9,335.1l-1.7,0.9c-0.4-0.5-1-0.8-2-0.8c-1.4,0-2.4,1-2.4,2.4c0,1.3,1,2.4,2.4,2.4c0.9,0,1.6-0.3,2-0.7
			v-0.8h-2.5V337h4.2v3c-0.1,0.1-1.3,1.8-3.7,1.8c-2.7,0-4.4-2-4.4-4.2c0-2.3,1.9-4.2,4.4-4.2C278.8,333.4,280.1,334.1,280.9,335.1z
			"/>
		<path class="st1" d="M288.1,340.4h-3.9l-0.5,1.3h-2.1l3.5-8.2h2.2l3.5,8.2h-2.1L288.1,340.4z M287.4,338.8l-1.3-3l-1.3,3H287.4z"
			/>
		<path class="st1" d="M298.9,336.6c0,1.2-0.6,2.2-1.5,2.6l1.7,2.5h-2.4l-1.2-2H294v2h-2v-8.2h3.9
			C297.6,333.5,298.9,334.8,298.9,336.6z M294,335.3v2.5h1.7c0.7,0,1.2-0.6,1.2-1.2c0-0.7-0.5-1.2-1.2-1.2H294z"/>
		<path class="st1" d="M308.1,341.7h-2v-3.2h-3.6v3.2h-2v-8.2h2v3.2h3.6v-3.2h2V341.7z"/>
	</g>
</g>
<g>
	<g>
		<path class="st1" d="M71.8,271.7l3.4-3.4l-3.6-3.7l1.8-1.8l3.6,3.7l3.7-3.7l1.8,1.8l-3.8,3.7l3.4,3.4l-1.8,1.8l-3.4-3.4l-3.4,3.4
			L71.8,271.7z"/>
	</g>
	<g class="st2">
		<path class="st1" d="M42.2,280h-2.9v6.3h-2V280h-2.9v-1.8h7.8V280z"/>
		<path class="st1" d="M45.5,286.3h-2v-8.2h2V286.3z"/>
		<path class="st1" d="M54.2,281.2c0,1.2-0.6,2.2-1.5,2.6l1.7,2.5H52l-1.2-2h-1.4v2h-2v-8.2h3.9C52.9,278.2,54.2,279.4,54.2,281.2z
			 M49.3,280v2.5H51c0.7,0,1.2-0.6,1.2-1.2c0-0.7-0.5-1.2-1.2-1.2H49.3z"/>
		<path class="st1" d="M61.9,285H58l-0.5,1.3h-2.1l3.5-8.2H61l3.5,8.2h-2.1L61.9,285z M61.2,283.4l-1.3-3l-1.3,3H61.2z"/>
		<path class="st1" d="M71.6,280h-2.9v6.3h-2V280h-2.9v-1.8h7.8V280z"/>
		<path class="st1" d="M80.5,286.3h-2v-3.2h-3.6v3.2h-2v-8.2h2v3.2h3.6v-3.2h2V286.3z"/>
		<path class="st1" d="M90,279.8l-1.7,0.9c-0.4-0.5-1-0.8-2-0.8c-1.4,0-2.4,1-2.4,2.4c0,1.3,1,2.4,2.4,2.4c0.9,0,1.6-0.3,2-0.7v-0.8
			h-2.5v-1.5h4.2v3c-0.1,0.1-1.3,1.8-3.7,1.8c-2.7,0-4.4-2-4.4-4.2c0-2.3,1.9-4.2,4.4-4.2C87.9,278,89.2,278.7,90,279.8z"/>
		<path class="st1" d="M97.2,285h-3.9l-0.5,1.3h-2.1l3.5-8.2h2.2l3.5,8.2h-2.1L97.2,285z M96.5,283.4l-1.3-3l-1.3,3H96.5z"/>
		<path class="st1" d="M108,281.2c0,1.2-0.6,2.2-1.5,2.6l1.7,2.5h-2.4l-1.2-2h-1.4v2h-2v-8.2h3.9C106.7,278.2,108,279.4,108,281.2z
			 M103.1,280v2.5h1.7c0.7,0,1.2-0.6,1.2-1.2c0-0.7-0.5-1.2-1.2-1.2H103.1z"/>
		<path class="st1" d="M117.1,286.3h-2v-3.2h-3.6v3.2h-2v-8.2h2v3.2h3.6v-3.2h2V286.3z"/>
	</g>
</g>
<g>
	<path class="st1" d="M771,436.1l3.4-3.4l-3.6-3.7l1.8-1.8l3.6,3.7l3.7-3.7l1.8,1.8l-3.8,3.7l3.4,3.4l-1.8,1.8l-3.4-3.4l-3.4,3.4
		L771,436.1z"/>
</g>
<g class="st2">
	<path class="st1" d="M748.9,449.4h-3.9l-0.5,1.3h-2.1l3.5-8.2h2.2l3.5,8.2h-2.1L748.9,449.4z M748.2,447.8l-1.3-3l-1.3,3H748.2z"/>
	<path class="st1" d="M762.9,450.7h-2v-4.2l-2,4.2h-2.2l-2-4.2v4.2h-2v-8.2h2.2l2.8,6l2.8-6h2.2V450.7z"/>
	<path class="st1" d="M770.8,449.4h-3.9l-0.5,1.3h-2.1l3.5-8.2h2.2l3.5,8.2h-2.1L770.8,449.4z M770.1,447.8l-1.3-3l-1.3,3H770.1z"/>
	<path class="st1" d="M781.5,445.7c0,1.6-1,3.2-3.1,3.2h-1.8v1.8h-2v-8.2h3.8C780.5,442.5,781.5,444.1,781.5,445.7z M776.7,444.4
		v2.7h1.6c0.8,0,1.3-0.5,1.3-1.4c0-0.9-0.5-1.3-1.3-1.3H776.7z"/>
	<path class="st1" d="M789.1,449.4h-3.9l-0.5,1.3h-2.1l3.5-8.2h2.2l3.5,8.2h-2.1L789.1,449.4z M788.5,447.8l-1.3-3l-1.3,3H788.5z"/>
	<path class="st1" d="M800,445.6c0,1.2-0.6,2.2-1.5,2.6l1.7,2.5h-2.4l-1.2-2h-1.4v2h-2v-8.2h3.9C798.7,442.5,800,443.8,800,445.6z
		 M795.1,444.4v2.5h1.7c0.7,0,1.2-0.6,1.2-1.2c0-0.7-0.5-1.2-1.2-1.2H795.1z"/>
	<path class="st1" d="M807.7,449.4h-3.9l-0.5,1.3h-2.1l3.5-8.2h2.2l3.5,8.2h-2.1L807.7,449.4z M807,447.8l-1.3-3l-1.3,3H807z"/>
</g>
<g>
	<path class="st1" d="M393,856.4l3.4-3.4l-3.6-3.7l1.8-1.8l3.6,3.7l3.7-3.7l1.8,1.8l-3.8,3.7l3.4,3.4l-1.8,1.8l-3.4-3.4l-3.4,3.4
		L393,856.4z"/>
</g>
<g class="st2">
	<path class="st1" d="M386.5,871h-2v-4.2l-2,4.2h-2.2l-2-4.2v4.2h-2v-8.2h2.2l2.8,6l2.8-6h2.2V871z"/>
	<path class="st1" d="M396.2,866.9c0,2.3-1.9,4.2-4.2,4.2c-2.3,0-4.2-1.9-4.2-4.2c0-2.3,1.9-4.2,4.2-4.2
		C394.3,862.7,396.2,864.6,396.2,866.9z M389.6,866.9c0,1.3,1.1,2.4,2.4,2.4c1.3,0,2.4-1.1,2.4-2.4c0-1.3-1.1-2.4-2.4-2.4
		C390.7,864.6,389.6,865.6,389.6,866.9z"/>
	<path class="st1" d="M409.4,862.9l-3.1,8.2h-2l-1.7-5.3l-1.9,5.3h-2l-2.7-8.2h2.1l1.7,5.3l1.9-5.3h2.1l1.7,5.3l1.9-5.3H409.4z"/>
	<path class="st1" d="M414.6,869.8h-3.9l-0.5,1.3H408l3.5-8.2h2.2l3.5,8.2h-2.1L414.6,869.8z M413.9,868.1l-1.3-3l-1.3,3H413.9z"/>
</g>
<g>
	<path class="st1" d="M265,64.7l3.4-3.4l-3.6-3.7l1.8-1.8l3.6,3.7l3.7-3.7l1.8,1.8l-3.8,3.7l3.4,3.4l-1.8,1.8l-3.4-3.4l-3.4,3.4
		L265,64.7z"/>
</g>
<g class="st2">
	<path class="st1" d="M242.5,79.4h-2v-4.2l-2,4.2h-2.2l-2-4.2v4.2h-2v-8.2h2.2l2.8,6l2.8-6h2.2V79.4z"/>
	<path class="st1" d="M250.4,78.1h-3.9l-0.5,1.3h-2.1l3.5-8.2h2.2l3.5,8.2h-2.1L250.4,78.1z M249.7,76.5l-1.3-3l-1.3,3H249.7z"/>
	<path class="st1" d="M261.1,75.2c0,2.7-1.7,4.3-4,4.3c-2.3,0-3.9-1.6-3.9-4.3v-4h2v4c0,1.6,0.7,2.5,1.9,2.5c1.2,0,2-0.9,2-2.5v-4h2
		V75.2z"/>
	<path class="st1" d="M270.5,79.4h-2l-4.1-5v5h-2v-8.2h2l4.1,5v-5h2V79.4z"/>
	<path class="st1" d="M279,74.4c0,1.6-1,3.2-3.1,3.2h-1.8v1.8h-2v-8.2h3.8C278,71.2,279,72.8,279,74.4z M274.1,73v2.7h1.6
		c0.8,0,1.3-0.5,1.3-1.4c0-0.9-0.5-1.3-1.3-1.3H274.1z"/>
	<path class="st1" d="M286.6,78.1h-3.9l-0.5,1.3h-2.1l3.5-8.2h2.2l3.5,8.2h-2.1L286.6,78.1z M285.9,76.5l-1.3-3l-1.3,3H285.9z"/>
	<path class="st1" d="M297.4,74.3c0,1.2-0.6,2.2-1.5,2.6l1.7,2.5h-2.4l-1.2-2h-1.4v2h-2v-8.2h3.9C296.2,71.2,297.4,72.5,297.4,74.3z
		 M292.5,73v2.5h1.7c0.7,0,1.2-0.6,1.2-1.2c0-0.7-0.5-1.2-1.2-1.2H292.5z"/>
	<path class="st1" d="M305.1,78.1h-3.9l-0.5,1.3h-2.1l3.5-8.2h2.2l3.5,8.2h-2.1L305.1,78.1z M304.5,76.5l-1.3-3l-1.3,3H304.5z"/>
</g>
<g>
	<g>
		<path class="st1" d="M923.1,466.6c-0.4,0-0.7-0.2-0.9-0.6c-0.1-0.2-0.2-0.5-0.3-0.7s-0.2-0.5-0.3-0.6c-9.3-6.5-10.8-16.4-11-24.3
			c-0.3-10.1-0.9-18.4-3.4-26.6c-1.9-6.4-5.7-11.7-9.5-16.5c-4.4-5.6-10.3-9.8-15.9-13.9c-2-1.4-4-2.9-6-4.5
			c-1.2-0.9-2.3-1.8-3.5-2.7c-6.9-5.3-14-10.8-20.3-17.1c-8.1-8.1-15.7-15.5-23.1-22.6c-2.6-2.4-5.3-4.9-7.9-7.2
			c-4-3.6-8.2-7.3-12-11.2c-6-6.3-12-12.9-17.7-19.3c-3.1-3.5-6.4-7.1-9.6-10.7c-6.5-7.1-11.3-13.4-15.3-19.9
			c-3.2-5.3-4.6-11.6-4-18.6c0.4-5,1.2-10,1.9-14.8c0.6-4.2,1.2-8.4,1.7-12.7c0.6-5.7-0.5-11.6-3.2-18.1c-4-9.6-10.5-17.7-16.8-25.5
			c-3.8-4.7-7.5-9.5-11.3-14.2c-4.6-5.8-9.4-11.9-14.2-17.8l-1.7-2.1c-5.2-6.4-10.6-13.1-17.5-18.1c-7.3-5.3-15.3-9.1-22.2-12.1
			l-4.6-2c-5.6-2.5-11.5-5.1-17.2-7.7l-3.4-1.5c-9-4.1-18.2-8.4-27.9-11.1c-8.3-2.3-16.8-2.5-26.7-0.8c-1.6,0.3-3.1,0.6-4.7,0.8
			c-6.9,1.2-14,2.5-21.1,3.1c-9.8,0.7-18.7-2.3-26.5-8.9c-11.2-9.5-22.1-18.8-33.2-27.7c-7.7-6.2-15.7-12.5-23.4-18.5
			c-5.3-4.2-10.8-8.5-16.2-12.7c-0.8-0.6-1.6-1.3-2.4-1.9c-6.9-5.4-14-11-18.6-19c-2.2-3.8-4.1-7.9-5.9-11.9
			c-0.6-1.4-1.3-2.8-1.9-4.2c-0.3-0.6-0.6-1.2-0.9-1.9c-2-4.4-3.9-8.5-8-11.1c-0.9-0.6-2.1-1-3.2-1.4c-0.6-0.2-1.1-0.4-1.7-0.6
			c-0.5-0.2-0.8-0.8-0.6-1.3c0.2-0.5,0.8-0.8,1.3-0.6c0.5,0.2,1.1,0.4,1.6,0.6c1.2,0.4,2.5,0.8,3.7,1.6c4.6,2.9,6.7,7.5,8.7,11.9
			c0.3,0.6,0.6,1.2,0.9,1.9c0.7,1.4,1.3,2.8,1.9,4.2c1.8,3.9,3.6,8,5.8,11.7c4.4,7.6,11.4,13.1,18.1,18.4c0.8,0.6,1.6,1.3,2.5,1.9
			c5.4,4.3,10.9,8.6,16.2,12.7c7.7,6,15.7,12.2,23.5,18.5c11.1,8.9,22,18.2,33.2,27.7c7.4,6.3,15.8,9.1,25,8.4
			c7-0.5,14.1-1.8,20.9-3c1.6-0.3,3.2-0.6,4.7-0.8c10.1-1.8,19.2-1.5,27.6,0.8c9.9,2.7,19.2,7,28.2,11.2l3.4,1.5
			c5.7,2.6,11.5,5.2,17.2,7.7l4.6,2c7,3.1,15.1,7,22.5,12.3c7.2,5.1,12.6,11.9,17.9,18.5l1.7,2.1c4.8,5.9,9.6,12,14.2,17.8
			c3.7,4.7,7.5,9.5,11.3,14.2c6.3,7.9,12.9,16.1,17.1,25.9c2.9,6.8,4,13,3.3,19.1c-0.4,4.3-1.1,8.6-1.7,12.8
			c-0.7,4.8-1.4,9.8-1.8,14.7c-0.6,6.6,0.7,12.5,3.7,17.4c3.9,6.4,8.7,12.6,15.1,19.6c3.2,3.5,6.5,7.2,9.6,10.7
			c5.7,6.4,11.6,13,17.6,19.2c3.8,3.9,7.9,7.6,11.9,11.1c2.6,2.3,5.4,4.8,8,7.2c7.5,7.1,15.1,14.5,23.2,22.6
			c6.2,6.2,13.3,11.7,20.1,16.9c1.2,0.9,2.4,1.8,3.5,2.7c1.9,1.5,4,3,6,4.4c5.7,4.2,11.7,8.5,16.3,14.3c4,5,7.9,10.5,9.9,17.2
			c2.5,8.4,3.2,16.9,3.4,27.1c0.2,7.4,1.5,16.7,10.1,22.7c0.6,0.4,0.8,1,1,1.6c0.1,0.2,0.1,0.3,0.2,0.5c0.2,0.5,0,1.1-0.4,1.3
			C923.4,466.6,923.2,466.6,923.1,466.6z"/>
	</g>
	<g>
		<path class="st1" d="M851.9,190.3c-4.6,0-9.3-1.2-13.8-3.5c-22.4-11.7-40.4-21.5-56.6-30.9c-14.5-8.4-26.8-20.5-37.6-36.8
			c-4.3-6.5-8.9-12.9-13.3-19.1c-1.6-2.3-3.3-4.6-4.9-6.9c-3-4.3-7.4-6.9-11.9-9.6l-0.3-0.2c-7.1-4.3-15.1-6.7-22.8-9.1
			c-1.7-0.5-3.4-1-5-1.6c-8.6-2.7-17.2-6.7-27.9-12.7c-9-5.1-17.6-7.6-26.1-7.7c-4.8-0.1-9.8,0.4-14.6,0.8c-2.2,0.2-4.5,0.4-6.7,0.5
			c-1.4,0.1-2.7,0.2-4.1,0.3c-8.6,0.6-17.4,1.3-26.2-0.6c-5.7-1.2-10.6-3.4-14.7-6.5c-14.4-11.1-24.6-23-31.3-36.3
			c-3.7-7.4-5.6-15.3-5.8-24.2c0-2.6,0-5.2,0-7.7c0-1.2,0-2.3,0-3.5c0-0.6,0.4-1,1-1s1,0.4,1,1c0,1.2,0,2.3,0,3.5c0,2.5,0,5.1,0,7.6
			c0.2,8.5,2,16.2,5.5,23.3c6.5,13,16.5,24.6,30.7,35.6c3.8,2.9,8.5,5,13.8,6.2c8.5,1.8,17.2,1.2,25.6,0.5c1.4-0.1,2.7-0.2,4.1-0.3
			c2.2-0.1,4.5-0.3,6.7-0.5c4.9-0.4,9.9-0.9,14.8-0.8c8.9,0.1,17.7,2.7,27.1,8c10.6,6,19.1,9.9,27.5,12.6c1.7,0.5,3.4,1.1,5,1.6
			c7.8,2.4,15.9,4.9,23.2,9.3l0.3,0.2c4.6,2.7,9.3,5.6,12.5,10.2c1.6,2.3,3.3,4.6,4.9,6.9c4.5,6.2,9.1,12.7,13.4,19.2
			c10.6,16,22.7,27.8,36.9,36.1c16.2,9.4,34.1,19.2,56.6,30.8c7.1,3.7,14.8,4.3,21.7,1.7c5.6-2.1,10.8-6.2,15.8-12.5
			c8.6-10.8,15.8-22.8,22.4-34.1c4.9-8.5,10.5-18.1,17.8-26.2c1.4-1.6,2.7-3.3,3.9-5c0.6-0.8,1.2-1.6,1.8-2.4c0.3-0.4,1-0.5,1.4-0.2
			s0.5,1,0.2,1.4c-0.6,0.8-1.2,1.6-1.8,2.3c-1.3,1.7-2.6,3.5-4,5.1c-7.1,8-12.7,17.5-17.5,25.9c-6.6,11.4-13.9,23.4-22.5,34.3
			c-5.2,6.6-10.7,10.9-16.7,13.1C858.3,189.8,855.1,190.3,851.9,190.3z"/>
	</g>
	<g>
		<path class="st1" d="M852.7,107c-1.7,0-3.4-0.1-5.1-0.2l-1.5-0.1c-9-0.5-16.9-4.2-22.7-7.5c-2.9-1.6-5.8-3.1-8.7-4.2
			c-9.8-3.6-16.6-10.9-22.7-18.1c-4.2-4.9-7.1-11.1-9.3-19.5c-1.1-4.3-2.2-8.7-3.2-12.9c-1.5-6.3-3.1-12.7-4.9-19
			c-2.2-7.6-4.8-15.4-8-23.3c-2.7-6.7-8-11-15.8-12.8c-6.2-1.4-12.5-2.7-18.7-3.9l-3.3-0.7c-5.8-1.2-11.2-3.6-16.4-7.6
			c-0.6-0.4-1.2-0.8-2-1.1c-0.4-0.2-0.7-0.4-1-0.5c-0.5-0.3-0.7-0.9-0.4-1.4s0.9-0.7,1.4-0.4c0.3,0.2,0.6,0.3,1,0.5
			c0.8,0.4,1.6,0.8,2.3,1.3c5,3.8,10.1,6.1,15.6,7.2l3.3,0.7c6.1,1.2,12.5,2.5,18.7,3.9c8.4,2,14.3,6.8,17.2,14
			c3.2,8,5.9,15.9,8,23.5c1.8,6.3,3.4,12.8,4.9,19.1c1,4.2,2.1,8.6,3.2,12.9c2.1,8.1,5,14.1,8.9,18.7c5.9,7,12.5,14.1,21.8,17.5
			c3.1,1.1,6,2.7,9,4.3c5.7,3.1,13.3,6.8,21.9,7.2l1.5,0.1c3.7,0.2,7.6,0.5,11-0.5c3.9-1.1,8.2-3.2,12.6-6.3
			c13.5-9.5,27.1-20.4,44.3-35.3c1.7-1.4,3.2-3.1,4.7-4.7c0.7-0.8,1.4-1.6,2.2-2.3c0.4-0.4,1-0.4,1.4,0s0.4,1,0,1.4
			c-0.7,0.7-1.4,1.5-2.1,2.3c-1.5,1.7-3.1,3.4-4.8,4.9c-17.2,15-30.9,26-44.4,35.5c-4.6,3.2-9,5.4-13.2,6.6
			C857.1,106.8,854.9,107,852.7,107z"/>
	</g>
	<g>
		<path class="st1" d="M877.8,18.6c-3.3,0-6.4-0.3-9.2-0.7c-9-1.3-16.8-5.4-23.1-12.4c-4.4-4.8-7.7-10.9-10.3-19.5
			c-0.6-2-1.5-3.9-2.3-5.8c-0.4-0.9-0.8-1.8-1.1-2.7c-0.2-0.5,0-1.1,0.6-1.3c0.5-0.2,1.1,0,1.3,0.6c0.4,0.9,0.7,1.8,1.1,2.6
			c0.8,1.9,1.7,4,2.3,6c2.6,8.2,5.7,14.2,9.9,18.7c6,6.6,13.4,10.5,21.9,11.7c6.1,0.9,13.2,1.4,20.4-1.1c5.8-2,10.9-5.6,15.2-10.6
			c4.5-5.2,8.8-10.6,12.9-15.9c1.1-1.4,2.2-2.9,3.4-4.3c0.4-0.5,0.6-1.1,0.9-1.8c0.1-0.4,0.3-0.7,0.4-1.1c0.2-0.5,0.8-0.7,1.3-0.5
			s0.7,0.8,0.5,1.3c-0.1,0.3-0.3,0.6-0.4,1c-0.3,0.8-0.6,1.6-1.2,2.4c-1.1,1.4-2.2,2.9-3.4,4.3c-4.2,5.3-8.5,10.8-13,16
			c-4.6,5.3-10,9.1-16.1,11.2C885.9,18.1,881.7,18.6,877.8,18.6z"/>
	</g>
</g>
<g>
	<g>
		<path class="st3" d="M6.9,241.4c23.7,8.8,58.8,26.1,70.2,26.8c14.8,0.9,102.7,15.6,115.2,25.3s71.4,30.9,83.5,30.1
			s80.2-34.6,83.5-44.9s140.5-94.2,197.2-58.5s76.6,75.4,101,80.4s88.4,23.6,95.7,47s21.8,50.9,23.3,85.1s27.7,148.2,36.1,161.9
			s-54.7,163-83.3,180.3S568.7,876.4,523.7,879.1c-39.1,2.3-82.8,21.8-102,43.2"/>
	</g>
</g>
</svg>
