<svg id="Layer_1" data-name="Layer 1" xmlns="http://www.w3.org/2000/svg" xmlns:xlink="http://www.w3.org/1999/xlink" viewBox="0 0 595.281 595.281"><defs><style>.cls-1{fill:url(#linear-gradient);}.cls-2{fill:none;stroke:#4b4c4b;stroke-miterlimit:10;stroke-width:0.5px;}</style><linearGradient id="linear-gradient" x1="297.641" x2="297.641" y2="595.281" gradientUnits="userSpaceOnUse"><stop offset="0" stop-color="#fff"/><stop offset="0.79" stop-color="#00bfa2"/><stop offset="1" stop-color="#00bf64"/></linearGradient></defs><title>topbox</title><rect class="cls-1" width="595.281" height="595.281"/><rect class="cls-2" x="19.202" y="19.203" width="556.863" height="556.876"/><line class="cls-2" x1="19.202" y1="558.115" x2="576.065" y2="558.115"/><line class="cls-2" x1="19.202" y1="540.151" x2="576.065" y2="540.151"/><line class="cls-2" x1="19.202" y1="522.187" x2="576.065" y2="522.187"/><line class="cls-2" x1="19.202" y1="504.224" x2="576.065" y2="504.224"/><line class="cls-2" x1="19.202" y1="486.26" x2="576.065" y2="486.26"/><line class="cls-2" x1="19.202" y1="468.296" x2="576.065" y2="468.296"/><line class="cls-2" x1="19.202" y1="450.332" x2="576.065" y2="450.332"/><line class="cls-2" x1="19.202" y1="432.369" x2="576.065" y2="432.369"/><line class="cls-2" x1="19.202" y1="414.405" x2="576.065" y2="414.405"/><line class="cls-2" x1="19.202" y1="396.441" x2="576.065" y2="396.441"/><line class="cls-2" x1="19.202" y1="378.477" x2="576.065" y2="378.477"/><line class="cls-2" x1="19.202" y1="360.514" x2="576.065" y2="360.514"/><line class="cls-2" x1="19.202" y1="342.55" x2="576.065" y2="342.55"/><line class="cls-2" x1="19.202" y1="324.586" x2="576.065" y2="324.586"/><line class="cls-2" x1="19.202" y1="306.623" x2="576.065" y2="306.623"/><line class="cls-2" x1="19.202" y1="288.659" x2="576.065" y2="288.659"/><line class="cls-2" x1="19.202" y1="270.695" x2="576.065" y2="270.695"/><line class="cls-2" x1="19.202" y1="252.731" x2="576.065" y2="252.731"/><line class="cls-2" x1="19.202" y1="234.768" x2="576.065" y2="234.768"/><line class="cls-2" x1="19.202" y1="216.804" x2="576.065" y2="216.804"/><line class="cls-2" x1="19.202" y1="198.84" x2="576.065" y2="198.84"/><line class="cls-2" x1="19.202" y1="180.876" x2="576.065" y2="180.876"/><line class="cls-2" x1="19.202" y1="162.913" x2="576.065" y2="162.913"/><line class="cls-2" x1="19.202" y1="144.949" x2="576.065" y2="144.949"/><line class="cls-2" x1="19.202" y1="126.985" x2="576.065" y2="126.985"/><line class="cls-2" x1="19.202" y1="109.021" x2="576.065" y2="109.021"/><line class="cls-2" x1="19.202" y1="91.058" x2="576.065" y2="91.058"/><line class="cls-2" x1="19.202" y1="73.094" x2="576.065" y2="73.094"/><line class="cls-2" x1="19.202" y1="55.13" x2="576.065" y2="55.13"/><line class="cls-2" x1="19.202" y1="37.166" x2="576.065" y2="37.166"/><line class="cls-2" x1="558.102" y1="19.203" x2="558.102" y2="576.079"/><line class="cls-2" x1="540.138" y1="19.203" x2="540.138" y2="576.079"/><line class="cls-2" x1="522.175" y1="19.203" x2="522.175" y2="576.079"/><line class="cls-2" x1="504.212" y1="19.203" x2="504.212" y2="576.079"/><line class="cls-2" x1="486.248" y1="19.203" x2="486.248" y2="576.079"/><line class="cls-2" x1="468.285" y1="19.203" x2="468.285" y2="576.079"/><line class="cls-2" x1="450.322" y1="19.203" x2="450.322" y2="576.079"/><line class="cls-2" x1="432.359" y1="19.203" x2="432.359" y2="576.079"/><line class="cls-2" x1="414.395" y1="19.203" x2="414.395" y2="576.079"/><line class="cls-2" x1="396.432" y1="19.203" x2="396.432" y2="576.079"/><line class="cls-2" x1="378.469" y1="19.203" x2="378.469" y2="576.079"/><line class="cls-2" x1="360.505" y1="19.203" x2="360.505" y2="576.079"/><line class="cls-2" x1="342.542" y1="19.203" x2="342.542" y2="576.079"/><line class="cls-2" x1="324.579" y1="19.203" x2="324.579" y2="576.079"/><line class="cls-2" x1="306.615" y1="19.203" x2="306.615" y2="576.079"/><line class="cls-2" x1="288.652" y1="19.203" x2="288.652" y2="576.079"/><line class="cls-2" x1="270.689" y1="19.203" x2="270.689" y2="576.079"/><line class="cls-2" x1="252.725" y1="19.203" x2="252.725" y2="576.079"/><line class="cls-2" x1="234.762" y1="19.203" x2="234.762" y2="576.079"/><line class="cls-2" x1="216.799" y1="19.203" x2="216.799" y2="576.079"/><line class="cls-2" x1="198.835" y1="19.203" x2="198.835" y2="576.079"/><line class="cls-2" x1="180.872" y1="19.203" x2="180.872" y2="576.079"/><line class="cls-2" x1="162.909" y1="19.203" x2="162.909" y2="576.079"/><line class="cls-2" x1="144.945" y1="19.203" x2="144.945" y2="576.079"/><line class="cls-2" x1="126.982" y1="19.203" x2="126.982" y2="576.079"/><line class="cls-2" x1="109.019" y1="19.203" x2="109.019" y2="576.079"/><line class="cls-2" x1="91.055" y1="19.203" x2="91.055" y2="576.079"/><line class="cls-2" x1="73.092" y1="19.203" x2="73.092" y2="576.079"/><line class="cls-2" x1="55.129" y1="19.203" x2="55.129" y2="576.079"/><line class="cls-2" x1="37.165" y1="19.203" x2="37.165" y2="576.079"/></svg>